G04*
G04 #@! TF.GenerationSoftware,Altium Limited,Altium Designer,24.2.2 (26)*
G04*
G04 Layer_Color=65535*
%FSLAX44Y44*%
%MOMM*%
G71*
G04*
G04 #@! TF.SameCoordinates,F77653A4-241C-4A06-9F2E-C48980E71D5F*
G04*
G04*
G04 #@! TF.FilePolarity,Positive*
G04*
G01*
G75*
%ADD10C,0.2540*%
%ADD11C,0.4000*%
%ADD12C,0.3000*%
%ADD13C,0.2500*%
%ADD14C,0.2000*%
%ADD15C,0.1524*%
%ADD16C,0.1520*%
%ADD17C,0.2032*%
%ADD18C,0.2030*%
G36*
X544830Y708660D02*
X529590D01*
X544830Y692150D01*
Y708660D01*
D02*
G37*
D10*
X756850Y679638D02*
G03*
X753752Y682736I-3098J0D01*
G01*
Y668540D02*
G03*
X756850Y671638I0J3098D01*
G01*
X729051Y671643D02*
G03*
X732149Y668544I3098J0D01*
G01*
Y682741D02*
G03*
X729051Y679642I0J-3098D01*
G01*
X833190Y670372D02*
G03*
X836288Y667274I3098J-0D01*
G01*
Y681470D02*
G03*
X833190Y678372I0J-3098D01*
G01*
X860989Y678367D02*
G03*
X857891Y681466I-3098J0D01*
G01*
Y667269D02*
G03*
X860989Y670368I-0J3098D01*
G01*
X817810Y731708D02*
G03*
X814712Y734806I-3098J0D01*
G01*
Y720610D02*
G03*
X817810Y723708I0J3098D01*
G01*
X790011Y723712D02*
G03*
X793109Y720614I3098J0D01*
G01*
Y734811D02*
G03*
X790011Y731712I0J-3098D01*
G01*
X670748Y574110D02*
G03*
X673846Y577208I0J3098D01*
G01*
X659650D02*
G03*
X662748Y574110I3098J0D01*
G01*
X662753Y601909D02*
G03*
X659654Y598811I0J-3098D01*
G01*
X673851D02*
G03*
X670752Y601909I-3098J-0D01*
G01*
X864682Y502850D02*
G03*
X861584Y499752I-0J-3098D01*
G01*
X875780D02*
G03*
X872682Y502850I-3098J0D01*
G01*
X872678Y475051D02*
G03*
X875776Y478149I0J3098D01*
G01*
X861579D02*
G03*
X864678Y475051I3098J0D01*
G01*
X883732Y502850D02*
G03*
X880634Y499752I-0J-3098D01*
G01*
X894830D02*
G03*
X891732Y502850I-3098J0D01*
G01*
X891728Y475051D02*
G03*
X894826Y478149I0J3098D01*
G01*
X880629D02*
G03*
X883728Y475051I3098J0D01*
G01*
X672912Y692080D02*
G03*
X669814Y688982I-0J-3098D01*
G01*
X684010D02*
G03*
X680912Y692080I-3098J0D01*
G01*
X680908Y664281D02*
G03*
X684006Y667379I0J3098D01*
G01*
X669809D02*
G03*
X672908Y664281I3098J0D01*
G01*
X904052Y501580D02*
G03*
X900954Y498482I-0J-3098D01*
G01*
X915150D02*
G03*
X912052Y501580I-3098J0D01*
G01*
X912048Y473781D02*
G03*
X915146Y476879I0J3098D01*
G01*
X900949D02*
G03*
X904048Y473781I3098J0D01*
G01*
X886648Y591890D02*
G03*
X889746Y594988I0J3098D01*
G01*
X875550D02*
G03*
X878648Y591890I3098J0D01*
G01*
X878652Y619689D02*
G03*
X875554Y616591I0J-3098D01*
G01*
X889751D02*
G03*
X886652Y619689I-3098J-0D01*
G01*
X610935Y872148D02*
G03*
X607837Y875247I-3098J0D01*
G01*
Y861050D02*
G03*
X610935Y864148I0J3098D01*
G01*
X583136Y864153D02*
G03*
X586234Y861055I3098J0D01*
G01*
Y875251D02*
G03*
X583136Y872153I0J-3098D01*
G01*
X583135Y888283D02*
G03*
X586233Y885184I3098J-0D01*
G01*
Y899381D02*
G03*
X583135Y896282I0J-3098D01*
G01*
X610934Y896278D02*
G03*
X607836Y899376I-3098J0D01*
G01*
Y885179D02*
G03*
X610934Y888278I-0J3098D01*
G01*
X798895Y858178D02*
G03*
X795797Y861277I-3098J0D01*
G01*
Y847080D02*
G03*
X798895Y850178I0J3098D01*
G01*
X771096Y850183D02*
G03*
X774194Y847085I3098J0D01*
G01*
Y861282D02*
G03*
X771096Y858183I0J-3098D01*
G01*
X787347Y898561D02*
G03*
X784249Y895462I-0J-3098D01*
G01*
X798445D02*
G03*
X795347Y898561I-3098J0D01*
G01*
X795342Y870761D02*
G03*
X798441Y873859I0J3098D01*
G01*
X784244D02*
G03*
X787343Y870761I3098J0D01*
G01*
X906968Y591890D02*
G03*
X910066Y594988I0J3098D01*
G01*
X895870D02*
G03*
X898968Y591890I3098J0D01*
G01*
X898972Y619689D02*
G03*
X895874Y616591I0J-3098D01*
G01*
X910071D02*
G03*
X906972Y619689I-3098J-0D01*
G01*
X600640Y638998D02*
G03*
X597542Y642096I-3098J0D01*
G01*
Y627900D02*
G03*
X600640Y630998I0J3098D01*
G01*
X572841Y631003D02*
G03*
X575939Y627904I3098J0D01*
G01*
Y642101D02*
G03*
X572841Y639002I0J-3098D01*
G01*
X572840Y683072D02*
G03*
X575938Y679974I3098J-0D01*
G01*
Y694170D02*
G03*
X572840Y691072I0J-3098D01*
G01*
X600639Y691068D02*
G03*
X597541Y694166I-3098J0D01*
G01*
Y679969D02*
G03*
X600639Y683068I-0J3098D01*
G01*
X565220Y530672D02*
G03*
X568318Y527574I3098J-0D01*
G01*
Y541770D02*
G03*
X565220Y538672I0J-3098D01*
G01*
X593019Y538667D02*
G03*
X589921Y541766I-3098J0D01*
G01*
Y527569D02*
G03*
X593019Y530668I-0J3098D01*
G01*
X593020Y589468D02*
G03*
X589922Y592566I-3098J0D01*
G01*
Y578370D02*
G03*
X593020Y581468I0J3098D01*
G01*
X565221Y581473D02*
G03*
X568319Y578374I3098J0D01*
G01*
Y592571D02*
G03*
X565221Y589472I0J-3098D01*
G01*
X594430Y765622D02*
G03*
X597528Y762524I3098J-0D01*
G01*
Y776720D02*
G03*
X594430Y773622I0J-3098D01*
G01*
X622229Y773617D02*
G03*
X619131Y776716I-3098J0D01*
G01*
Y762519D02*
G03*
X622229Y765618I-0J3098D01*
G01*
X623500Y727898D02*
G03*
X620402Y730996I-3098J0D01*
G01*
Y716800D02*
G03*
X623500Y719898I0J3098D01*
G01*
X595701Y719902D02*
G03*
X598799Y716804I3098J0D01*
G01*
Y731001D02*
G03*
X595701Y727902I0J-3098D01*
G01*
X595700Y742762D02*
G03*
X598798Y739664I3098J-0D01*
G01*
Y753860D02*
G03*
X595700Y750762I0J-3098D01*
G01*
X623499Y750758D02*
G03*
X620401Y753856I-3098J0D01*
G01*
Y739659D02*
G03*
X623499Y742758I-0J3098D01*
G01*
X722560Y735518D02*
G03*
X719462Y738616I-3098J0D01*
G01*
Y724420D02*
G03*
X722560Y727518I0J3098D01*
G01*
X694761Y727523D02*
G03*
X697859Y724424I3098J0D01*
G01*
Y738621D02*
G03*
X694761Y735522I0J-3098D01*
G01*
X728910Y762188D02*
G03*
X725812Y765286I-3098J0D01*
G01*
Y751090D02*
G03*
X728910Y754188I0J3098D01*
G01*
X701111Y754193D02*
G03*
X704209Y751094I3098J0D01*
G01*
Y765291D02*
G03*
X701111Y762192I0J-3098D01*
G01*
X728910Y790128D02*
G03*
X725812Y793226I-3098J0D01*
G01*
Y779030D02*
G03*
X728910Y782128I0J3098D01*
G01*
X701111Y782132D02*
G03*
X704209Y779034I3098J0D01*
G01*
Y793231D02*
G03*
X701111Y790132I0J-3098D01*
G01*
X858154Y727349D02*
G03*
X858154Y727349I-1704J0D01*
G01*
X679449Y726439D02*
G03*
X679449Y726439I-1270J0D01*
G01*
X539884Y866880D02*
G03*
X539884Y866880I-1270J0D01*
G01*
X902970Y876301D02*
G03*
X902970Y876301I-1270J0D01*
G01*
X754700Y551599D02*
G03*
X754700Y551599I-1270J0D01*
G01*
X732148Y668544D02*
X740148D01*
X745753Y668540D02*
X753752D01*
X732148Y682741D02*
X740148D01*
X745753Y682736D02*
X753752D01*
X729051Y671643D02*
Y679643D01*
X756850Y671637D02*
Y679638D01*
X849892Y681466D02*
X857892D01*
X836288Y681470D02*
X844287D01*
X849892Y667269D02*
X857892D01*
X836288Y667274D02*
X844287D01*
X860989Y670367D02*
Y678367D01*
X833190Y670372D02*
Y678372D01*
X793108Y720614D02*
X801108D01*
X806713Y720610D02*
X814712D01*
X793108Y734811D02*
X801108D01*
X806713Y734806D02*
X814712D01*
X790011Y723712D02*
Y731713D01*
X817810Y723708D02*
Y731708D01*
X659654Y590812D02*
Y598812D01*
X659650Y577208D02*
Y585207D01*
X673851Y590812D02*
Y598812D01*
X673846Y577208D02*
Y585207D01*
X662753Y601909D02*
X670753D01*
X662747Y574110D02*
X670748D01*
X875776Y478148D02*
Y486148D01*
X875780Y491753D02*
Y499752D01*
X861579Y478148D02*
Y486148D01*
X861584Y491753D02*
Y499752D01*
X864677Y475051D02*
X872678D01*
X864682Y502850D02*
X872682D01*
X894826Y478148D02*
Y486148D01*
X894830Y491753D02*
Y499752D01*
X880629Y478148D02*
Y486148D01*
X880634Y491753D02*
Y499752D01*
X883727Y475051D02*
X891728D01*
X883732Y502850D02*
X891732D01*
X684006Y667378D02*
Y675378D01*
X684010Y680983D02*
Y688982D01*
X669809Y667378D02*
Y675378D01*
X669814Y680983D02*
Y688982D01*
X672907Y664281D02*
X680908D01*
X672912Y692080D02*
X680912D01*
X915146Y476878D02*
Y484878D01*
X915150Y490483D02*
Y498482D01*
X900949Y476878D02*
Y484878D01*
X900954Y490483D02*
Y498482D01*
X904047Y473781D02*
X912048D01*
X904052Y501580D02*
X912053D01*
X875554Y608592D02*
Y616592D01*
X875550Y594988D02*
Y602987D01*
X889751Y608592D02*
Y616592D01*
X889746Y594988D02*
Y602987D01*
X878652Y619689D02*
X886653D01*
X878648Y591890D02*
X886648D01*
X586233Y861055D02*
X594233D01*
X599837Y861050D02*
X607837D01*
X586233Y875251D02*
X594233D01*
X599837Y875247D02*
X607837D01*
X583136Y864153D02*
Y872153D01*
X610935Y864148D02*
Y872148D01*
X599837Y899376D02*
X607836D01*
X586232Y899381D02*
X594232D01*
X599837Y885179D02*
X607836D01*
X586232Y885184D02*
X594232D01*
X610934Y888277D02*
Y896278D01*
X583135Y888283D02*
Y896283D01*
X774193Y847085D02*
X782193D01*
X787797Y847080D02*
X795797D01*
X774193Y861282D02*
X782193D01*
X787797Y861277D02*
X795797D01*
X771096Y850183D02*
Y858183D01*
X798895Y850178D02*
Y858178D01*
X798441Y873859D02*
Y881859D01*
X798445Y887463D02*
Y895463D01*
X784244Y873859D02*
Y881859D01*
X784249Y887463D02*
Y895463D01*
X787342Y870761D02*
X795342D01*
X787347Y898561D02*
X795347D01*
X895874Y608592D02*
Y616592D01*
X895870Y594988D02*
Y602987D01*
X910071Y608592D02*
Y616592D01*
X910066Y594988D02*
Y602987D01*
X898972Y619689D02*
X906973D01*
X898968Y591890D02*
X906968D01*
X575938Y627904D02*
X583938D01*
X589543Y627900D02*
X597542D01*
X575938Y642101D02*
X583938D01*
X589543Y642096D02*
X597542D01*
X572841Y631003D02*
Y639003D01*
X600640Y630998D02*
Y638998D01*
X589542Y694166D02*
X597542D01*
X575938Y694170D02*
X583937D01*
X589542Y679969D02*
X597542D01*
X575938Y679974D02*
X583937D01*
X600639Y683067D02*
Y691068D01*
X572840Y683072D02*
Y691072D01*
X581922Y541766D02*
X589922D01*
X568318Y541770D02*
X576317D01*
X581922Y527569D02*
X589922D01*
X568318Y527574D02*
X576317D01*
X593019Y530667D02*
Y538667D01*
X565220Y530672D02*
Y538672D01*
X568318Y578374D02*
X576318D01*
X581923Y578370D02*
X589922D01*
X568318Y592571D02*
X576318D01*
X581923Y592566D02*
X589922D01*
X565221Y581473D02*
Y589473D01*
X593020Y581468D02*
Y589468D01*
X611132Y776716D02*
X619132D01*
X597528Y776720D02*
X605527D01*
X611132Y762519D02*
X619132D01*
X597528Y762524D02*
X605527D01*
X622229Y765617D02*
Y773617D01*
X594430Y765622D02*
Y773623D01*
X598798Y716804D02*
X606798D01*
X612403Y716800D02*
X620402D01*
X598798Y731001D02*
X606798D01*
X612403Y730996D02*
X620402D01*
X595701Y719902D02*
Y727903D01*
X623500Y719898D02*
Y727898D01*
X612402Y753856D02*
X620402D01*
X598798Y753860D02*
X606797D01*
X612402Y739659D02*
X620402D01*
X598798Y739664D02*
X606797D01*
X623499Y742757D02*
Y750758D01*
X595700Y742762D02*
Y750762D01*
X697858Y724424D02*
X705858D01*
X711463Y724420D02*
X719462D01*
X697858Y738621D02*
X705858D01*
X711463Y738616D02*
X719462D01*
X694761Y727523D02*
Y735523D01*
X722560Y727517D02*
Y735518D01*
X704208Y751094D02*
X712208D01*
X717813Y751090D02*
X725812D01*
X704208Y765291D02*
X712208D01*
X717813Y765286D02*
X725812D01*
X701111Y754193D02*
Y762193D01*
X728910Y754187D02*
Y762188D01*
X704208Y779034D02*
X712208D01*
X717813Y779030D02*
X725812D01*
X704208Y793231D02*
X712208D01*
X717813Y793226D02*
X725812D01*
X701111Y782132D02*
Y790133D01*
X728910Y782128D02*
Y790128D01*
X545079Y513370D02*
Y708370D01*
X447078Y513370D02*
X545079D01*
X447078D02*
Y708370D01*
X545079D01*
X642619Y726439D02*
X673099D01*
X642619Y767079D02*
X673099D01*
X642619Y726439D02*
Y727958D01*
Y765560D02*
Y767079D01*
X673099Y726439D02*
Y727958D01*
Y765560D02*
Y767079D01*
X736519Y613540D02*
X853519Y613540D01*
X736519Y646540D02*
Y661540D01*
Y661540D02*
X853519D01*
X736519Y613540D02*
Y628540D01*
X853519Y646540D02*
Y661540D01*
Y613540D02*
Y628540D01*
X533534Y786401D02*
Y811339D01*
Y861462D02*
Y886400D01*
X524916D02*
X533534D01*
X483104D02*
X490293D01*
X524916Y786401D02*
X533534D01*
X483104D02*
X490293D01*
X483104D02*
Y886400D01*
X821220Y881380D02*
X846159D01*
X896282D02*
X921220D01*
Y889999D01*
Y924622D02*
Y931810D01*
X821220Y881380D02*
Y889999D01*
Y924622D02*
Y931810D01*
X921220D01*
X654050Y482840D02*
X778510D01*
X654050D02*
Y491489D01*
Y543800D02*
X681990D01*
X654050Y526112D02*
Y543800D01*
X778510Y526112D02*
Y543800D01*
X750491D02*
X778510D01*
Y482840D02*
Y491489D01*
D11*
X848750Y715050D02*
G03*
X848775Y715050I13J-2000D01*
G01*
D12*
X695096Y652954D02*
G03*
X695096Y652954I-1501J0D01*
G01*
X662882Y905510D02*
G03*
X662882Y905510I-1501J0D01*
G01*
X641068Y912904D02*
G03*
X641068Y912904I-1501J0D01*
G01*
D13*
X875779Y513315D02*
G03*
X875804Y513315I13J-1250D01*
G01*
D14*
X853694Y789051D02*
X915670D01*
Y722503D02*
Y789051D01*
X849376Y722503D02*
X915670D01*
X849376D02*
Y789051D01*
X856996D01*
X870809Y516481D02*
X877559D01*
X870809D02*
Y523231D01*
X908059Y516481D02*
X914809D01*
Y523231D01*
Y553731D02*
Y560481D01*
X908059D02*
X914809D01*
X870809Y553731D02*
Y560481D01*
X877559D01*
D15*
X661648Y631317D02*
Y648841D01*
X692172Y631317D02*
Y648841D01*
X653856Y913322D02*
X720284D01*
Y808798D02*
Y913322D01*
X653856Y808798D02*
X720284D01*
X653856D02*
Y913322D01*
X599440Y666914D02*
X600981Y665390D01*
Y655226D02*
Y665390D01*
X599440Y653900D02*
X600981Y655226D01*
X572499Y655410D02*
X574040Y653900D01*
X572499Y655410D02*
Y665574D01*
X574040Y666900D01*
X782772Y572514D02*
X792361D01*
Y585726D01*
X782772D02*
X792361D01*
X764659Y572514D02*
X774248D01*
X764659D02*
Y585726D01*
X774248D01*
X898904Y819269D02*
Y828858D01*
Y819269D02*
X912116D01*
Y828858D01*
X898904Y837382D02*
Y846971D01*
X912116D01*
Y837382D02*
Y846971D01*
X744201Y694223D02*
X741548Y693756D01*
X739364Y690636D01*
X739831Y687984D01*
X746071Y683614D01*
X748724Y684082D01*
X750908Y687202D01*
X750441Y689854D01*
X754185Y691882D02*
X756370Y695002D01*
X755278Y693442D01*
X745918Y699996D01*
X746385Y697343D01*
X872487Y673097D02*
X870583Y675001D01*
X866774D01*
X864870Y673097D01*
Y665479D01*
X866774Y663575D01*
X870583D01*
X872487Y665479D01*
X883914Y663575D02*
X876296D01*
X883914Y671192D01*
Y673097D01*
X882010Y675001D01*
X878201D01*
X876296Y673097D01*
X772158Y725167D02*
X770253Y727071D01*
X766444D01*
X764540Y725167D01*
Y717549D01*
X766444Y715645D01*
X770253D01*
X772158Y717549D01*
X775966Y725167D02*
X777871Y727071D01*
X781680D01*
X783584Y725167D01*
Y723262D01*
X781680Y721358D01*
X779775D01*
X781680D01*
X783584Y719454D01*
Y717549D01*
X781680Y715645D01*
X777871D01*
X775966Y717549D01*
X651513Y584198D02*
X649609Y582293D01*
Y578484D01*
X651513Y576580D01*
X659131D01*
X661035Y578484D01*
Y582293D01*
X659131Y584198D01*
X661035Y593719D02*
X649609D01*
X655322Y588006D01*
Y595624D01*
X871223Y461007D02*
X869319Y459103D01*
Y455294D01*
X871223Y453390D01*
X878841D01*
X880745Y455294D01*
Y459103D01*
X878841Y461007D01*
X869319Y472434D02*
Y464816D01*
X875032D01*
X873128Y468625D01*
Y470530D01*
X875032Y472434D01*
X878841D01*
X880745Y470530D01*
Y466721D01*
X878841Y464816D01*
X890273Y461007D02*
X888369Y459103D01*
Y455294D01*
X890273Y453390D01*
X897891D01*
X899795Y455294D01*
Y459103D01*
X897891Y461007D01*
X888369Y472434D02*
X890273Y468625D01*
X894082Y464816D01*
X897891D01*
X899795Y466721D01*
Y470530D01*
X897891Y472434D01*
X895986D01*
X894082Y470530D01*
Y464816D01*
X662943Y685798D02*
X661039Y683893D01*
Y680084D01*
X662943Y678180D01*
X670561D01*
X672465Y680084D01*
Y683893D01*
X670561Y685798D01*
X661039Y689606D02*
Y697224D01*
X662943D01*
X670561Y689606D01*
X672465D01*
X909323Y459738D02*
X907419Y457833D01*
Y454024D01*
X909323Y452120D01*
X916941D01*
X918845Y454024D01*
Y457833D01*
X916941Y459738D01*
X909323Y463546D02*
X907419Y465451D01*
Y469259D01*
X909323Y471164D01*
X911227D01*
X913132Y469259D01*
X915036Y471164D01*
X916941D01*
X918845Y469259D01*
Y465451D01*
X916941Y463546D01*
X915036D01*
X913132Y465451D01*
X911227Y463546D01*
X909323D01*
X913132Y465451D02*
Y469259D01*
X882653Y632458D02*
X880749Y630553D01*
Y626744D01*
X882653Y624840D01*
X890271D01*
X892175Y626744D01*
Y630553D01*
X890271Y632458D01*
Y636266D02*
X892175Y638171D01*
Y641980D01*
X890271Y643884D01*
X882653D01*
X880749Y641980D01*
Y638171D01*
X882653Y636266D01*
X884557D01*
X886462Y638171D01*
Y643884D01*
X562742Y866877D02*
X560838Y868782D01*
X557029D01*
X555125Y866877D01*
Y859260D01*
X557029Y857355D01*
X560838D01*
X562742Y859260D01*
X566551Y857355D02*
X570360D01*
X568456D01*
Y868782D01*
X566551Y866877D01*
X576073D02*
X577977Y868782D01*
X581786D01*
X583691Y866877D01*
Y859260D01*
X581786Y857355D01*
X577977D01*
X576073Y859260D01*
Y866877D01*
X565282Y891007D02*
X563378Y892912D01*
X559569D01*
X557665Y891007D01*
Y883390D01*
X559569Y881485D01*
X563378D01*
X565282Y883390D01*
X569091Y881485D02*
X572900D01*
X570996D01*
Y892912D01*
X569091Y891007D01*
X578613Y881485D02*
X582422D01*
X580518D01*
Y892912D01*
X578613Y891007D01*
X810392Y852907D02*
X808488Y854812D01*
X804679D01*
X802775Y852907D01*
Y845290D01*
X804679Y843385D01*
X808488D01*
X810392Y845290D01*
X814201Y843385D02*
X818010D01*
X816106D01*
Y854812D01*
X814201Y852907D01*
X831341Y843385D02*
X823723D01*
X831341Y851003D01*
Y852907D01*
X829436Y854812D01*
X825628D01*
X823723Y852907D01*
X763402Y880847D02*
X761498Y882752D01*
X757689D01*
X755785Y880847D01*
Y873230D01*
X757689Y871325D01*
X761498D01*
X763402Y873230D01*
X767211Y871325D02*
X771020D01*
X769116D01*
Y882752D01*
X767211Y880847D01*
X776733D02*
X778637Y882752D01*
X782446D01*
X784351Y880847D01*
Y878943D01*
X782446Y877039D01*
X780542D01*
X782446D01*
X784351Y875134D01*
Y873230D01*
X782446Y871325D01*
X778637D01*
X776733Y873230D01*
X905513Y632458D02*
X903609Y630553D01*
Y626744D01*
X905513Y624840D01*
X913131D01*
X915035Y626744D01*
Y630553D01*
X913131Y632458D01*
X915035Y636266D02*
Y640075D01*
Y638171D01*
X903609D01*
X905513Y636266D01*
X915035Y651501D02*
X903609D01*
X909322Y645788D01*
Y653406D01*
X613408Y632457D02*
X611503Y634361D01*
X607694D01*
X605790Y632457D01*
Y624839D01*
X607694Y622935D01*
X611503D01*
X613408Y624839D01*
X617216Y622935D02*
X621025D01*
X619121D01*
Y634361D01*
X617216Y632457D01*
X634356Y634361D02*
X626738D01*
Y628648D01*
X630547Y630552D01*
X632451D01*
X634356Y628648D01*
Y624839D01*
X632451Y622935D01*
X628643D01*
X626738Y624839D01*
X613408Y685797D02*
X611503Y687701D01*
X607694D01*
X605790Y685797D01*
Y678179D01*
X607694Y676275D01*
X611503D01*
X613408Y678179D01*
X617216Y676275D02*
X621025D01*
X619121D01*
Y687701D01*
X617216Y685797D01*
X634356Y687701D02*
X630547Y685797D01*
X626738Y681988D01*
Y678179D01*
X628643Y676275D01*
X632451D01*
X634356Y678179D01*
Y680084D01*
X632451Y681988D01*
X626738D01*
X572767Y515617D02*
X570863Y517521D01*
X567054D01*
X565150Y515617D01*
Y507999D01*
X567054Y506095D01*
X570863D01*
X572767Y507999D01*
X576576Y506095D02*
X580385D01*
X578481D01*
Y517521D01*
X576576Y515617D01*
X586098Y517521D02*
X593716D01*
Y515617D01*
X586098Y507999D01*
Y506095D01*
X586738Y599437D02*
X584833Y601341D01*
X581024D01*
X579120Y599437D01*
Y591819D01*
X581024Y589915D01*
X584833D01*
X586738Y591819D01*
X590546Y589915D02*
X594355D01*
X592451D01*
Y601341D01*
X590546Y599437D01*
X600068D02*
X601973Y601341D01*
X605781D01*
X607686Y599437D01*
Y597533D01*
X605781Y595628D01*
X607686Y593724D01*
Y591819D01*
X605781Y589915D01*
X601973D01*
X600068Y591819D01*
Y593724D01*
X601973Y595628D01*
X600068Y597533D01*
Y599437D01*
X601973Y595628D02*
X605781D01*
X572767Y768347D02*
X570863Y770251D01*
X567054D01*
X565150Y768347D01*
Y760729D01*
X567054Y758825D01*
X570863D01*
X572767Y760729D01*
X576576Y758825D02*
X580385D01*
X578481D01*
Y770251D01*
X576576Y768347D01*
X586098Y760729D02*
X588003Y758825D01*
X591811D01*
X593716Y760729D01*
Y768347D01*
X591811Y770251D01*
X588003D01*
X586098Y768347D01*
Y766442D01*
X588003Y764538D01*
X593716D01*
X568957Y722627D02*
X567053Y724531D01*
X563244D01*
X561340Y722627D01*
Y715009D01*
X563244Y713105D01*
X567053D01*
X568957Y715009D01*
X580384Y713105D02*
X572766D01*
X580384Y720723D01*
Y722627D01*
X578479Y724531D01*
X574671D01*
X572766Y722627D01*
X584193D02*
X586097Y724531D01*
X589906D01*
X591810Y722627D01*
Y715009D01*
X589906Y713105D01*
X586097D01*
X584193Y715009D01*
Y722627D01*
X572767Y745487D02*
X570863Y747391D01*
X567054D01*
X565150Y745487D01*
Y737869D01*
X567054Y735965D01*
X570863D01*
X572767Y737869D01*
X584194Y735965D02*
X576576D01*
X584194Y743583D01*
Y745487D01*
X582290Y747391D01*
X578481D01*
X576576Y745487D01*
X588003Y735965D02*
X591811D01*
X589907D01*
Y747391D01*
X588003Y745487D01*
X734057Y730247D02*
X732153Y732151D01*
X728344D01*
X726440Y730247D01*
Y722629D01*
X728344Y720725D01*
X732153D01*
X734057Y722629D01*
X745484Y720725D02*
X737866D01*
X745484Y728343D01*
Y730247D01*
X743579Y732151D01*
X739771D01*
X737866Y730247D01*
X756910Y720725D02*
X749293D01*
X756910Y728343D01*
Y730247D01*
X755006Y732151D01*
X751197D01*
X749293Y730247D01*
X739137Y754377D02*
X737233Y756281D01*
X733424D01*
X731520Y754377D01*
Y746759D01*
X733424Y744855D01*
X737233D01*
X739137Y746759D01*
X750564Y744855D02*
X742946D01*
X750564Y752473D01*
Y754377D01*
X748660Y756281D01*
X744851D01*
X742946Y754377D01*
X754373D02*
X756277Y756281D01*
X760086D01*
X761990Y754377D01*
Y752473D01*
X760086Y750568D01*
X758181D01*
X760086D01*
X761990Y748664D01*
Y746759D01*
X760086Y744855D01*
X756277D01*
X754373Y746759D01*
X740407Y784857D02*
X738503Y786761D01*
X734694D01*
X732790Y784857D01*
Y777239D01*
X734694Y775335D01*
X738503D01*
X740407Y777239D01*
X751834Y775335D02*
X744216D01*
X751834Y782952D01*
Y784857D01*
X749930Y786761D01*
X746121D01*
X744216Y784857D01*
X761356Y775335D02*
Y786761D01*
X755643Y781048D01*
X763260D01*
X882650Y814574D02*
Y803148D01*
X888363D01*
X890267Y805052D01*
Y812670D01*
X888363Y814574D01*
X882650D01*
X894076D02*
Y803148D01*
X899790D01*
X901694Y805052D01*
Y812670D01*
X899790Y814574D01*
X894076D01*
X905503Y803148D02*
X909311D01*
X907407D01*
Y814574D01*
X905503Y812670D01*
X650879Y640079D02*
X662305D01*
Y645792D01*
X660401Y647696D01*
X652783D01*
X650879Y645792D01*
Y640079D01*
Y651505D02*
X662305D01*
Y657218D01*
X660401Y659123D01*
X652783D01*
X650879Y657218D01*
Y651505D01*
X662305Y670549D02*
Y662931D01*
X654688Y670549D01*
X652783D01*
X650879Y668644D01*
Y664836D01*
X652783Y662931D01*
X878840Y573401D02*
Y561975D01*
X884553D01*
X886458Y563879D01*
Y571497D01*
X884553Y573401D01*
X878840D01*
X890266D02*
Y561975D01*
X895980D01*
X897884Y563879D01*
Y571497D01*
X895980Y573401D01*
X890266D01*
X901693Y571497D02*
X903597Y573401D01*
X907406D01*
X909310Y571497D01*
Y569593D01*
X907406Y567688D01*
X905501D01*
X907406D01*
X909310Y565784D01*
Y563879D01*
X907406Y561975D01*
X903597D01*
X901693Y563879D01*
X478790Y719451D02*
Y708025D01*
X484503D01*
X486408Y709929D01*
Y717547D01*
X484503Y719451D01*
X478790D01*
X490216D02*
Y708025D01*
X495929D01*
X497834Y709929D01*
Y717547D01*
X495929Y719451D01*
X490216D01*
X507356Y708025D02*
Y719451D01*
X501643Y713738D01*
X509260D01*
X670695Y922122D02*
Y910695D01*
X676408D01*
X678312Y912600D01*
Y920217D01*
X676408Y922122D01*
X670695D01*
X682121D02*
Y910695D01*
X687834D01*
X689739Y912600D01*
Y920217D01*
X687834Y922122D01*
X682121D01*
X701165D02*
X693548D01*
Y916409D01*
X697356Y918313D01*
X699261D01*
X701165Y916409D01*
Y912600D01*
X699261Y910695D01*
X695452D01*
X693548Y912600D01*
X641350Y780411D02*
Y768985D01*
X647063D01*
X648968Y770889D01*
Y778507D01*
X647063Y780411D01*
X641350D01*
X652776D02*
Y768985D01*
X658490D01*
X660394Y770889D01*
Y778507D01*
X658490Y780411D01*
X652776D01*
X671820D02*
X668011Y778507D01*
X664203Y774698D01*
Y770889D01*
X666107Y768985D01*
X669916D01*
X671820Y770889D01*
Y772794D01*
X669916Y774698D01*
X664203D01*
X605790Y661031D02*
Y649605D01*
X613408D01*
X617216D02*
X621025D01*
X619121D01*
Y661031D01*
X617216Y659127D01*
X802636Y661669D02*
Y669287D01*
X800732Y671191D01*
X796923D01*
X795019Y669287D01*
Y661669D01*
X796923Y659765D01*
X800732D01*
X798828Y663574D02*
X802636Y659765D01*
X800732D02*
X802636Y661669D01*
X806445Y659765D02*
X810254D01*
X808349D01*
Y671191D01*
X806445Y669287D01*
X769620Y583565D02*
Y594991D01*
X775333D01*
X777237Y593087D01*
Y589278D01*
X775333Y587374D01*
X769620D01*
X773429D02*
X777237Y583565D01*
X781046D02*
X784855D01*
X782951D01*
Y594991D01*
X781046Y593087D01*
X917575Y850900D02*
X906149D01*
Y856613D01*
X908053Y858518D01*
X911862D01*
X913766Y856613D01*
Y850900D01*
Y854709D02*
X917575Y858518D01*
Y869944D02*
Y862326D01*
X909958Y869944D01*
X908053D01*
X906149Y868039D01*
Y864231D01*
X908053Y862326D01*
X835660Y497201D02*
X843278Y485775D01*
Y497201D02*
X835660Y485775D01*
X847086D02*
Y497201D01*
X852800D01*
X854704Y495297D01*
Y491488D01*
X852800Y489584D01*
X847086D01*
X858513Y485775D02*
X862321D01*
X860417D01*
Y497201D01*
X858513Y495297D01*
X834390Y525141D02*
X842008Y513715D01*
Y525141D02*
X834390Y513715D01*
X845816D02*
Y525141D01*
X851529D01*
X853434Y523237D01*
Y519428D01*
X851529Y517524D01*
X845816D01*
X864860Y513715D02*
X857243D01*
X864860Y521333D01*
Y523237D01*
X862956Y525141D01*
X859147D01*
X857243Y523237D01*
X834390Y556891D02*
X842008Y545465D01*
Y556891D02*
X834390Y545465D01*
X845816D02*
Y556891D01*
X851529D01*
X853434Y554987D01*
Y551178D01*
X851529Y549274D01*
X845816D01*
X857243Y554987D02*
X859147Y556891D01*
X862956D01*
X864860Y554987D01*
Y553083D01*
X862956Y551178D01*
X861051D01*
X862956D01*
X864860Y549274D01*
Y547369D01*
X862956Y545465D01*
X859147D01*
X857243Y547369D01*
X834390Y584831D02*
X842008Y573405D01*
Y584831D02*
X834390Y573405D01*
X845816D02*
Y584831D01*
X851529D01*
X853434Y582927D01*
Y579118D01*
X851529Y577214D01*
X845816D01*
X862956Y573405D02*
Y584831D01*
X857243Y579118D01*
X864860D01*
X918210Y497201D02*
X925827Y485775D01*
Y497201D02*
X918210Y485775D01*
X929636D02*
Y497201D01*
X935350D01*
X937254Y495297D01*
Y491488D01*
X935350Y489584D01*
X929636D01*
X948680Y497201D02*
X941063D01*
Y491488D01*
X944871Y493392D01*
X946776D01*
X948680Y491488D01*
Y487679D01*
X946776Y485775D01*
X942967D01*
X941063Y487679D01*
X920750Y525141D02*
X928367Y513715D01*
Y525141D02*
X920750Y513715D01*
X932176D02*
Y525141D01*
X937889D01*
X939794Y523237D01*
Y519428D01*
X937889Y517524D01*
X932176D01*
X951220Y525141D02*
X947411Y523237D01*
X943603Y519428D01*
Y515619D01*
X945507Y513715D01*
X949316D01*
X951220Y515619D01*
Y517524D01*
X949316Y519428D01*
X943603D01*
X919480Y554351D02*
X927097Y542925D01*
Y554351D02*
X919480Y542925D01*
X930906D02*
Y554351D01*
X936619D01*
X938524Y552447D01*
Y548638D01*
X936619Y546734D01*
X930906D01*
X942333Y554351D02*
X949950D01*
Y552447D01*
X942333Y544829D01*
Y542925D01*
X918210Y581021D02*
X925827Y569595D01*
Y581021D02*
X918210Y569595D01*
X929636D02*
Y581021D01*
X935350D01*
X937254Y579117D01*
Y575308D01*
X935350Y573404D01*
X929636D01*
X941063Y579117D02*
X942967Y581021D01*
X946776D01*
X948680Y579117D01*
Y577212D01*
X946776Y575308D01*
X948680Y573404D01*
Y571499D01*
X946776Y569595D01*
X942967D01*
X941063Y571499D01*
Y573404D01*
X942967Y575308D01*
X941063Y577212D01*
Y579117D01*
X942967Y575308D02*
X946776D01*
X555016Y837371D02*
X543590Y829753D01*
X555016D02*
X543590Y837371D01*
Y825944D02*
X555016D01*
Y820231D01*
X553111Y818327D01*
X549303D01*
X547398Y820231D01*
Y825944D01*
X545494Y814518D02*
X543590Y812614D01*
Y808805D01*
X545494Y806900D01*
X553111D01*
X555016Y808805D01*
Y812614D01*
X553111Y814518D01*
X551207D01*
X549303Y812614D01*
Y806900D01*
X807089Y899160D02*
X818515Y906777D01*
X807089D02*
X818515Y899160D01*
Y910586D02*
X807089D01*
Y916300D01*
X808993Y918204D01*
X812802D01*
X814706Y916300D01*
Y910586D01*
X818515Y922013D02*
Y925821D01*
Y923917D01*
X807089D01*
X808993Y922013D01*
Y931535D02*
X807089Y933439D01*
Y937248D01*
X808993Y939152D01*
X816611D01*
X818515Y937248D01*
Y933439D01*
X816611Y931535D01*
X808993D01*
X715010Y587371D02*
X722627Y575945D01*
Y587371D02*
X715010Y575945D01*
X726436Y587371D02*
X734054D01*
X730245D01*
Y575945D01*
X737863D02*
X741671D01*
X739767D01*
Y587371D01*
X737863Y585467D01*
D16*
X591840Y653900D02*
X599460D01*
X574019Y666900D02*
X581639D01*
X591840D02*
X599460D01*
X574019Y653900D02*
X581639D01*
D17*
X806450Y483870D02*
X831850D01*
X806450D02*
Y509270D01*
X831850D01*
Y490220D02*
Y509270D01*
X806450Y513080D02*
X831850D01*
X806450D02*
Y538480D01*
X831850D01*
Y519430D02*
Y538480D01*
X806450Y542290D02*
X831850D01*
X806450D02*
Y567690D01*
X831850D01*
Y548640D02*
Y567690D01*
X806450Y571500D02*
X831850D01*
X806450D02*
Y596900D01*
X831850D01*
Y577850D02*
Y596900D01*
X951230Y483870D02*
X976630D01*
X951230D02*
Y509270D01*
X976630D01*
Y490220D02*
Y509270D01*
X951230Y513080D02*
X976630D01*
X951230D02*
Y538480D01*
X976630D01*
Y519430D02*
Y538480D01*
X951230Y542290D02*
X976630D01*
X951230D02*
Y567690D01*
X976630D01*
Y548640D02*
Y567690D01*
X951230Y571500D02*
X976630D01*
X951230D02*
Y596900D01*
X976630D01*
Y577850D02*
Y596900D01*
D18*
X831850Y483870D02*
Y490220D01*
Y513080D02*
Y519430D01*
Y542290D02*
Y548640D01*
Y571500D02*
Y577850D01*
X976630Y483870D02*
Y490220D01*
Y513080D02*
Y519430D01*
Y542290D02*
Y548640D01*
Y571500D02*
Y577850D01*
M02*
