G04*
G04 #@! TF.GenerationSoftware,Altium Limited,Altium Designer,24.2.2 (26)*
G04*
G04 Layer_Physical_Order=1*
G04 Layer_Color=255*
%FSLAX44Y44*%
%MOMM*%
G71*
G04*
G04 #@! TF.SameCoordinates,F77653A4-241C-4A06-9F2E-C48980E71D5F*
G04*
G04*
G04 #@! TF.FilePolarity,Positive*
G04*
G01*
G75*
%ADD10C,0.2540*%
%ADD19R,0.8000X0.9000*%
%ADD20R,0.9000X0.8000*%
%ADD21O,0.2700X1.5000*%
%ADD22O,1.5000X0.2700*%
%ADD23R,0.5320X0.8000*%
%ADD24O,2.4005X0.5740*%
%ADD25R,5.5000X1.4000*%
%ADD26R,1.6000X0.8000*%
%ADD27R,3.0000X2.1000*%
%ADD28R,0.8000X1.6000*%
%ADD29R,2.1000X3.0000*%
%ADD30R,1.3000X6.5000*%
%ADD31R,1.8000X3.0000*%
%ADD60O,0.2800X0.9000*%
%ADD61O,0.9000X0.2800*%
%ADD62R,2.6000X2.6000*%
%ADD63R,0.7500X0.2500*%
%ADD64R,1.3000X0.2500*%
%ADD65R,1.6500X1.0700*%
%ADD66R,1.6500X1.7500*%
%ADD67R,0.8000X0.8640*%
%ADD68R,0.8065X0.8640*%
%ADD69R,0.8640X0.8065*%
%ADD70C,1.6000*%
%ADD71R,1.6000X1.6000*%
%ADD72R,1.5748X1.5748*%
%ADD73C,0.6200*%
%ADD74C,0.6100*%
D10*
X734573Y854710D02*
Y880110D01*
X588010Y746760D02*
X602600D01*
X672871Y761771D02*
X687070Y762000D01*
X676910Y652081D02*
Y671180D01*
X666750Y595010D02*
X667410Y595671D01*
Y612759D01*
Y628079D01*
X905154Y713156D02*
X909904D01*
X916940Y706120D01*
Y572770D02*
Y706120D01*
X903148Y558978D02*
X916940Y572770D01*
X887806Y558978D02*
X903148D01*
X910151Y713151D02*
X925149Y728149D01*
Y733151D01*
X722010Y758190D02*
Y786130D01*
X701659Y737840D02*
X722010Y758190D01*
X701659Y731520D02*
Y737840D01*
X691580Y741760D02*
X708009Y758190D01*
X672860Y741760D02*
X691580D01*
X701420Y731760D02*
X701659Y731520D01*
X687553Y731760D02*
X701420D01*
X672860D02*
X687553D01*
X616600Y723900D02*
X624460Y731760D01*
X631232D01*
X642860D01*
X615331Y769620D02*
X628192Y756759D01*
X631613D01*
X645360D01*
X616600Y746760D02*
X631516Y746759D01*
X642860Y746759D01*
X593739Y660400D02*
X626110D01*
X593739D02*
X593741Y635000D01*
X579739Y687070D02*
X579741Y660400D01*
X513080Y687070D02*
X579739D01*
X551306Y585470D02*
X572120D01*
X513080D02*
X551306D01*
X513080Y534670D02*
X551306D01*
X572120D01*
X741680Y545300D02*
X747560Y551180D01*
X764540D01*
X720090Y842010D02*
X734568D01*
X717550Y839470D02*
X720090Y842010D01*
X717550Y824230D02*
Y839470D01*
Y824230D02*
X718820Y822960D01*
X852754D01*
X870153Y805561D01*
Y798144D02*
Y805561D01*
X734573Y829310D02*
X852170D01*
X875149Y806331D01*
Y798149D02*
Y806331D01*
X791345Y877660D02*
X791995Y877010D01*
Y854180D02*
Y877010D01*
X639567Y854710D02*
Y867410D01*
Y880110D01*
X604035Y868150D02*
X604775Y867410D01*
X639567D01*
X777465Y854710D02*
X777995Y854180D01*
X734573Y854710D02*
X777465D01*
X604035Y892280D02*
X617264Y905510D01*
X639567D01*
X536604Y855151D02*
X550759Y869305D01*
X586964Y905510D01*
X639567D01*
X536603Y842651D02*
X537244Y842010D01*
X639567D01*
X536603Y830152D02*
X537445Y829310D01*
X639567D01*
X810910Y727710D02*
X811350Y728150D01*
X840151D01*
X840090Y674370D02*
X854060Y688340D01*
X864870D01*
X880151Y703621D01*
Y713151D01*
X840029Y637540D02*
X840080Y674370D01*
X749960Y675640D02*
X750011Y637540D01*
X749960Y675640D02*
X769010Y694690D01*
X864870D01*
X875157Y704977D01*
Y713156D01*
X864972Y854608D02*
Y878310D01*
Y854608D02*
X894080Y825500D01*
Y820420D02*
Y825500D01*
Y820420D02*
X900151Y814349D01*
Y798149D02*
Y814349D01*
X877471Y853625D02*
Y878310D01*
Y853625D02*
X905510Y825586D01*
X905149Y825225D02*
X905510Y825586D01*
X905149Y798149D02*
Y825225D01*
X882650Y598790D02*
X902970D01*
X882650Y568960D02*
Y598790D01*
X892810Y509920D02*
X908050Y494680D01*
X892810Y509920D02*
Y517980D01*
X887730Y495950D02*
Y517906D01*
X887806Y517982D01*
X868680Y495951D02*
X877570Y504841D01*
Y513080D01*
X882650Y568960D02*
X882802Y558978D01*
X877910Y513080D02*
X882810Y517980D01*
X877570Y513080D02*
X877910D01*
X872150Y528320D02*
X872310Y528480D01*
X862330Y528320D02*
X872150D01*
X923211Y543481D02*
X963930Y584200D01*
X913310Y543481D02*
X923211D01*
X947420Y538480D02*
X963930Y554990D01*
X913310Y538480D02*
X947420D01*
X913310Y533481D02*
X956229D01*
X963930Y525780D01*
X932020Y528480D02*
X963930Y496570D01*
X913310Y528480D02*
X932020D01*
X819150Y525780D02*
X831850Y538480D01*
X872310D01*
X856061Y533481D02*
X872310D01*
X819150Y496570D02*
X856061Y533481D01*
X819150Y554990D02*
X830659Y543481D01*
X872310D01*
X819150Y584200D02*
X854870Y548480D01*
X872310D01*
D19*
X749949Y675640D02*
D03*
X735951D02*
D03*
X840091Y674370D02*
D03*
X854089D02*
D03*
X810909Y727710D02*
D03*
X796911D02*
D03*
X604034Y868150D02*
D03*
X590036D02*
D03*
Y892280D02*
D03*
X604034D02*
D03*
X791994Y854180D02*
D03*
X777996D02*
D03*
X593739Y635000D02*
D03*
X579741D02*
D03*
Y687070D02*
D03*
X593739D02*
D03*
X572121Y534670D02*
D03*
X586119D02*
D03*
Y585470D02*
D03*
X572121D02*
D03*
X601331Y769620D02*
D03*
X615329D02*
D03*
X616599Y723900D02*
D03*
X602601D02*
D03*
Y746760D02*
D03*
X616599D02*
D03*
X715659Y731520D02*
D03*
X701661D02*
D03*
X722009Y758190D02*
D03*
X708011D02*
D03*
X722009Y786130D02*
D03*
X708011D02*
D03*
D20*
X666750Y581011D02*
D03*
Y595009D02*
D03*
X868680Y495949D02*
D03*
Y481951D02*
D03*
X887730Y495949D02*
D03*
Y481951D02*
D03*
X676910Y685179D02*
D03*
Y671181D02*
D03*
X908050Y494679D02*
D03*
Y480681D02*
D03*
X882650Y598791D02*
D03*
Y612789D02*
D03*
X791345Y891659D02*
D03*
Y877661D02*
D03*
X902970Y598791D02*
D03*
Y612789D02*
D03*
D21*
X855149Y713151D02*
D03*
X860151D02*
D03*
X865149D02*
D03*
X870151D02*
D03*
X875149D02*
D03*
X880151D02*
D03*
X885149D02*
D03*
X890151D02*
D03*
X895149D02*
D03*
X900151D02*
D03*
X905149D02*
D03*
X910151D02*
D03*
Y798148D02*
D03*
X905149D02*
D03*
X900151D02*
D03*
X895149D02*
D03*
X890151D02*
D03*
X885149D02*
D03*
X880151D02*
D03*
X875149D02*
D03*
X870151D02*
D03*
X865149D02*
D03*
X860151D02*
D03*
X855149D02*
D03*
D22*
X925150Y728149D02*
D03*
X925148Y733150D02*
D03*
X925150Y738149D02*
D03*
X925148Y743150D02*
D03*
X925150Y748149D02*
D03*
X925148Y753150D02*
D03*
X925150Y758149D02*
D03*
X925149Y763150D02*
D03*
X925150Y768149D02*
D03*
X925149Y773150D02*
D03*
X925150Y778149D02*
D03*
X925149Y783150D02*
D03*
X840150Y783151D02*
D03*
X840152Y778150D02*
D03*
X840150Y773151D02*
D03*
X840152Y768150D02*
D03*
X840150Y763151D02*
D03*
X840152Y758150D02*
D03*
X840150Y753151D02*
D03*
X840151Y748150D02*
D03*
X840150Y743151D02*
D03*
X840151Y738150D02*
D03*
X840150Y733151D02*
D03*
X840151Y728150D02*
D03*
D23*
X686410Y652079D02*
D03*
X676910D02*
D03*
X667410D02*
D03*
Y628079D02*
D03*
X676910D02*
D03*
X686410D02*
D03*
D24*
X639567Y905510D02*
D03*
Y892810D02*
D03*
Y880110D02*
D03*
Y867410D02*
D03*
Y854710D02*
D03*
Y842010D02*
D03*
Y829310D02*
D03*
Y816610D02*
D03*
X734573Y905510D02*
D03*
Y892810D02*
D03*
Y880110D02*
D03*
Y867410D02*
D03*
Y854710D02*
D03*
Y842010D02*
D03*
Y829310D02*
D03*
Y816610D02*
D03*
D25*
X750019Y637540D02*
D03*
X840019D02*
D03*
D26*
X536604Y855151D02*
D03*
Y842651D02*
D03*
Y830151D02*
D03*
Y817651D02*
D03*
D27*
X507604Y792151D02*
D03*
Y880650D02*
D03*
D28*
X889970Y878310D02*
D03*
X877470D02*
D03*
X864970D02*
D03*
X852470D02*
D03*
D29*
X826970Y907310D02*
D03*
X915470D02*
D03*
D30*
X741680Y545300D02*
D03*
X716280D02*
D03*
X690880D02*
D03*
D31*
X770680Y508800D02*
D03*
X661880D02*
D03*
D60*
X882811Y517980D02*
D03*
X887812D02*
D03*
X892811D02*
D03*
X897812D02*
D03*
X902811D02*
D03*
Y558980D02*
D03*
X897812D02*
D03*
X892811D02*
D03*
X887812D02*
D03*
X882811D02*
D03*
D61*
X913310Y528481D02*
D03*
Y533482D02*
D03*
Y538481D02*
D03*
Y543482D02*
D03*
Y548481D02*
D03*
X872310D02*
D03*
Y543482D02*
D03*
Y538481D02*
D03*
Y533482D02*
D03*
Y528481D02*
D03*
D62*
X892811Y538481D02*
D03*
D63*
X672859Y731759D02*
D03*
Y736759D02*
D03*
Y741759D02*
D03*
Y751759D02*
D03*
Y756759D02*
D03*
Y761759D02*
D03*
X642859D02*
D03*
Y751759D02*
D03*
Y746759D02*
D03*
Y741759D02*
D03*
Y736759D02*
D03*
Y731759D02*
D03*
D64*
X670359Y746759D02*
D03*
X645359Y756759D02*
D03*
D65*
X657859Y759259D02*
D03*
D66*
Y739259D02*
D03*
D67*
X593739Y660399D02*
D03*
X579741D02*
D03*
D68*
X786042Y579120D02*
D03*
X770978D02*
D03*
D69*
X905510Y825588D02*
D03*
Y840652D02*
D03*
D70*
X513080Y661670D02*
D03*
Y585470D02*
D03*
Y560070D02*
D03*
Y534670D02*
D03*
D71*
Y687070D02*
D03*
D72*
X819150Y496570D02*
D03*
Y525780D02*
D03*
Y554990D02*
D03*
Y584200D02*
D03*
X963930Y496570D02*
D03*
Y525780D02*
D03*
Y554990D02*
D03*
Y584200D02*
D03*
D73*
X862330Y528320D02*
D03*
X882650Y568960D02*
D03*
X877570Y513080D02*
D03*
X764540Y551180D02*
D03*
X550759Y869305D02*
D03*
X626110Y660400D02*
D03*
X551306Y585470D02*
D03*
Y534670D02*
D03*
X631232Y731760D02*
D03*
X631613Y756759D02*
D03*
X687553Y731760D02*
D03*
X667410Y612759D02*
D03*
X687070Y762000D02*
D03*
X588010Y746760D02*
D03*
D74*
X442521Y929079D02*
D03*
Y878279D02*
D03*
Y827480D02*
D03*
Y776680D02*
D03*
Y725880D02*
D03*
Y675080D02*
D03*
Y624280D02*
D03*
Y573480D02*
D03*
Y522680D02*
D03*
Y471880D02*
D03*
X493321Y929079D02*
D03*
Y827480D02*
D03*
Y725880D02*
D03*
Y675080D02*
D03*
Y624280D02*
D03*
Y573480D02*
D03*
Y522680D02*
D03*
Y471880D02*
D03*
X544120Y929079D02*
D03*
Y776680D02*
D03*
Y725880D02*
D03*
Y675080D02*
D03*
Y624280D02*
D03*
Y573480D02*
D03*
Y522680D02*
D03*
Y471880D02*
D03*
X594920Y929079D02*
D03*
Y573480D02*
D03*
Y522680D02*
D03*
Y471880D02*
D03*
X645720Y929079D02*
D03*
Y776680D02*
D03*
Y675080D02*
D03*
Y624280D02*
D03*
Y573480D02*
D03*
Y471880D02*
D03*
X696520Y929079D02*
D03*
Y878279D02*
D03*
Y827480D02*
D03*
Y776680D02*
D03*
Y675080D02*
D03*
Y471880D02*
D03*
X747320Y929079D02*
D03*
Y776680D02*
D03*
Y725880D02*
D03*
Y471880D02*
D03*
X798120Y929079D02*
D03*
Y776680D02*
D03*
Y675080D02*
D03*
Y624280D02*
D03*
Y522680D02*
D03*
Y471880D02*
D03*
X848920Y929079D02*
D03*
Y573480D02*
D03*
Y471880D02*
D03*
X899720Y929079D02*
D03*
Y776680D02*
D03*
Y675080D02*
D03*
X950520Y929079D02*
D03*
Y878279D02*
D03*
Y827480D02*
D03*
Y776680D02*
D03*
Y725880D02*
D03*
Y675080D02*
D03*
Y624280D02*
D03*
Y471880D02*
D03*
M02*
