G04*
G04 #@! TF.GenerationSoftware,Altium Limited,Altium Designer,24.2.2 (26)*
G04*
G04 Layer_Color=8388736*
%FSLAX44Y44*%
%MOMM*%
G71*
G04*
G04 #@! TF.SameCoordinates,F77653A4-241C-4A06-9F2E-C48980E71D5F*
G04*
G04*
G04 #@! TF.FilePolarity,Negative*
G04*
G01*
G75*
%ADD32R,0.9016X1.0016*%
%ADD33R,1.0016X0.9016*%
%ADD34O,0.3700X1.6000*%
%ADD35O,1.6000X0.3700*%
%ADD36R,0.6336X0.9016*%
%ADD37O,0.3816X1.0016*%
%ADD38O,1.0016X0.3816*%
%ADD39R,2.7016X2.7016*%
%ADD40O,2.5021X0.6756*%
%ADD41R,0.8500X0.3500*%
%ADD42R,1.4000X0.3500*%
%ADD43R,1.7500X1.1700*%
%ADD44R,1.7500X1.8500*%
%ADD45R,0.9016X0.9656*%
%ADD46R,5.6016X1.5016*%
%ADD47R,0.9081X0.9656*%
%ADD48R,0.9656X0.9081*%
%ADD49R,1.7016X0.9016*%
%ADD50R,3.1016X2.2016*%
%ADD51R,0.9016X1.7016*%
%ADD52R,2.2016X3.1016*%
%ADD53R,1.4000X6.6000*%
%ADD54R,1.9000X3.1000*%
%ADD55C,1.7016*%
%ADD56R,1.7016X1.7016*%
%ADD57R,1.6764X1.6764*%
%ADD58C,0.8232*%
%ADD59C,0.8132*%
D32*
X749949Y675640D02*
D03*
X735951D02*
D03*
X840091Y674370D02*
D03*
X854089D02*
D03*
X810909Y727710D02*
D03*
X796911D02*
D03*
X604034Y868150D02*
D03*
X590036D02*
D03*
Y892280D02*
D03*
X604034D02*
D03*
X791994Y854180D02*
D03*
X777996D02*
D03*
X593739Y635000D02*
D03*
X579741D02*
D03*
Y687070D02*
D03*
X593739D02*
D03*
X572121Y534670D02*
D03*
X586119D02*
D03*
Y585470D02*
D03*
X572121D02*
D03*
X601331Y769620D02*
D03*
X615329D02*
D03*
X616599Y723900D02*
D03*
X602601D02*
D03*
Y746760D02*
D03*
X616599D02*
D03*
X715659Y731520D02*
D03*
X701661D02*
D03*
X722009Y758190D02*
D03*
X708011D02*
D03*
X722009Y786130D02*
D03*
X708011D02*
D03*
D33*
X666750Y581011D02*
D03*
Y595009D02*
D03*
X868680Y495949D02*
D03*
Y481951D02*
D03*
X887730Y495949D02*
D03*
Y481951D02*
D03*
X676910Y685179D02*
D03*
Y671181D02*
D03*
X908050Y494679D02*
D03*
Y480681D02*
D03*
X882650Y598791D02*
D03*
Y612789D02*
D03*
X791345Y891659D02*
D03*
Y877661D02*
D03*
X902970Y598791D02*
D03*
Y612789D02*
D03*
D34*
X855149Y713151D02*
D03*
X860151D02*
D03*
X865149D02*
D03*
X870151D02*
D03*
X875149D02*
D03*
X880151D02*
D03*
X885149D02*
D03*
X890151D02*
D03*
X895149D02*
D03*
X900151D02*
D03*
X905149D02*
D03*
X910151D02*
D03*
Y798148D02*
D03*
X905149D02*
D03*
X900151D02*
D03*
X895149D02*
D03*
X890151D02*
D03*
X885149D02*
D03*
X880151D02*
D03*
X875149D02*
D03*
X870151D02*
D03*
X865149D02*
D03*
X860151D02*
D03*
X855149D02*
D03*
D35*
X925150Y728149D02*
D03*
X925148Y733150D02*
D03*
X925150Y738149D02*
D03*
X925148Y743150D02*
D03*
X925150Y748149D02*
D03*
X925148Y753150D02*
D03*
X925150Y758149D02*
D03*
X925149Y763150D02*
D03*
X925150Y768149D02*
D03*
X925149Y773150D02*
D03*
X925150Y778149D02*
D03*
X925149Y783150D02*
D03*
X840150Y783151D02*
D03*
X840152Y778150D02*
D03*
X840150Y773151D02*
D03*
X840152Y768150D02*
D03*
X840150Y763151D02*
D03*
X840152Y758150D02*
D03*
X840150Y753151D02*
D03*
X840151Y748150D02*
D03*
X840150Y743151D02*
D03*
X840151Y738150D02*
D03*
X840150Y733151D02*
D03*
X840151Y728150D02*
D03*
D36*
X686410Y652079D02*
D03*
X676910D02*
D03*
X667410D02*
D03*
Y628079D02*
D03*
X676910D02*
D03*
X686410D02*
D03*
D37*
X882811Y517980D02*
D03*
X887812D02*
D03*
X892811D02*
D03*
X897812D02*
D03*
X902811D02*
D03*
Y558980D02*
D03*
X897812D02*
D03*
X892811D02*
D03*
X887812D02*
D03*
X882811D02*
D03*
D38*
X913310Y528481D02*
D03*
Y533482D02*
D03*
Y538481D02*
D03*
Y543482D02*
D03*
Y548481D02*
D03*
X872310D02*
D03*
Y543482D02*
D03*
Y538481D02*
D03*
Y533482D02*
D03*
Y528481D02*
D03*
D39*
X892811Y538481D02*
D03*
D40*
X639567Y905510D02*
D03*
Y892810D02*
D03*
Y880110D02*
D03*
Y867410D02*
D03*
Y854710D02*
D03*
Y842010D02*
D03*
Y829310D02*
D03*
Y816610D02*
D03*
X734573Y905510D02*
D03*
Y892810D02*
D03*
Y880110D02*
D03*
Y867410D02*
D03*
Y854710D02*
D03*
Y842010D02*
D03*
Y829310D02*
D03*
Y816610D02*
D03*
D41*
X672859Y731759D02*
D03*
Y736759D02*
D03*
Y741759D02*
D03*
Y751759D02*
D03*
Y756759D02*
D03*
Y761759D02*
D03*
X642859D02*
D03*
Y751759D02*
D03*
Y746759D02*
D03*
Y741759D02*
D03*
Y736759D02*
D03*
Y731759D02*
D03*
D42*
X670359Y746759D02*
D03*
X645359Y756759D02*
D03*
D43*
X657859Y759259D02*
D03*
D44*
Y739259D02*
D03*
D45*
X593739Y660399D02*
D03*
X579741D02*
D03*
D46*
X750019Y637540D02*
D03*
X840019D02*
D03*
D47*
X786042Y579120D02*
D03*
X770978D02*
D03*
D48*
X905510Y825588D02*
D03*
Y840652D02*
D03*
D49*
X536604Y855151D02*
D03*
Y842651D02*
D03*
Y830151D02*
D03*
Y817651D02*
D03*
D50*
X507604Y792151D02*
D03*
Y880650D02*
D03*
D51*
X889970Y878310D02*
D03*
X877470D02*
D03*
X864970D02*
D03*
X852470D02*
D03*
D52*
X826970Y907310D02*
D03*
X915470D02*
D03*
D53*
X741680Y545300D02*
D03*
X716280D02*
D03*
X690880D02*
D03*
D54*
X770680Y508800D02*
D03*
X661880D02*
D03*
D55*
X513080Y661670D02*
D03*
Y585470D02*
D03*
Y560070D02*
D03*
Y534670D02*
D03*
D56*
Y687070D02*
D03*
D57*
X819150Y496570D02*
D03*
Y525780D02*
D03*
Y554990D02*
D03*
Y584200D02*
D03*
X963930Y496570D02*
D03*
Y525780D02*
D03*
Y554990D02*
D03*
Y584200D02*
D03*
D58*
X862330Y528320D02*
D03*
X882650Y568960D02*
D03*
X877570Y513080D02*
D03*
X764540Y551180D02*
D03*
X550759Y869305D02*
D03*
X626110Y660400D02*
D03*
X551306Y585470D02*
D03*
Y534670D02*
D03*
X631232Y731760D02*
D03*
X631613Y756759D02*
D03*
X687553Y731760D02*
D03*
X667410Y612759D02*
D03*
X687070Y762000D02*
D03*
X588010Y746760D02*
D03*
D59*
X442521Y929079D02*
D03*
Y878279D02*
D03*
Y827480D02*
D03*
Y776680D02*
D03*
Y725880D02*
D03*
Y675080D02*
D03*
Y624280D02*
D03*
Y573480D02*
D03*
Y522680D02*
D03*
Y471880D02*
D03*
X493321Y929079D02*
D03*
Y827480D02*
D03*
Y725880D02*
D03*
Y675080D02*
D03*
Y624280D02*
D03*
Y573480D02*
D03*
Y522680D02*
D03*
Y471880D02*
D03*
X544120Y929079D02*
D03*
Y776680D02*
D03*
Y725880D02*
D03*
Y675080D02*
D03*
Y624280D02*
D03*
Y573480D02*
D03*
Y522680D02*
D03*
Y471880D02*
D03*
X594920Y929079D02*
D03*
Y573480D02*
D03*
Y522680D02*
D03*
Y471880D02*
D03*
X645720Y929079D02*
D03*
Y776680D02*
D03*
Y675080D02*
D03*
Y624280D02*
D03*
Y573480D02*
D03*
Y471880D02*
D03*
X696520Y929079D02*
D03*
Y878279D02*
D03*
Y827480D02*
D03*
Y776680D02*
D03*
Y675080D02*
D03*
Y471880D02*
D03*
X747320Y929079D02*
D03*
Y776680D02*
D03*
Y725880D02*
D03*
Y471880D02*
D03*
X798120Y929079D02*
D03*
Y776680D02*
D03*
Y675080D02*
D03*
Y624280D02*
D03*
Y522680D02*
D03*
Y471880D02*
D03*
X848920Y929079D02*
D03*
Y573480D02*
D03*
Y471880D02*
D03*
X899720Y929079D02*
D03*
Y776680D02*
D03*
Y675080D02*
D03*
X950520Y929079D02*
D03*
Y878279D02*
D03*
Y827480D02*
D03*
Y776680D02*
D03*
Y725880D02*
D03*
Y675080D02*
D03*
Y624280D02*
D03*
Y471880D02*
D03*
M02*
