G04*
G04 #@! TF.GenerationSoftware,Altium Limited,Altium Designer,24.2.2 (26)*
G04*
G04 Layer_Color=16711935*
%FSLAX44Y44*%
%MOMM*%
G71*
G04*
G04 #@! TF.SameCoordinates,F77653A4-241C-4A06-9F2E-C48980E71D5F*
G04*
G04*
G04 #@! TF.FilePolarity,Negative*
G04*
G01*
G75*
%ADD55C,1.7016*%
%ADD56R,1.7016X1.7016*%
%ADD57R,1.6764X1.6764*%
%ADD58C,0.8232*%
%ADD59C,0.8132*%
D55*
X513080Y661670D02*
D03*
Y585470D02*
D03*
Y560070D02*
D03*
Y534670D02*
D03*
D56*
Y687070D02*
D03*
D57*
X819150Y496570D02*
D03*
Y525780D02*
D03*
Y554990D02*
D03*
Y584200D02*
D03*
X963930Y496570D02*
D03*
Y525780D02*
D03*
Y554990D02*
D03*
Y584200D02*
D03*
D58*
X862330Y528320D02*
D03*
X882650Y568960D02*
D03*
X877570Y513080D02*
D03*
X764540Y551180D02*
D03*
X550759Y869305D02*
D03*
X626110Y660400D02*
D03*
X551306Y585470D02*
D03*
Y534670D02*
D03*
X631232Y731760D02*
D03*
X631613Y756759D02*
D03*
X687553Y731760D02*
D03*
X667410Y612759D02*
D03*
X687070Y762000D02*
D03*
X588010Y746760D02*
D03*
D59*
X442521Y929079D02*
D03*
Y878279D02*
D03*
Y827480D02*
D03*
Y776680D02*
D03*
Y725880D02*
D03*
Y675080D02*
D03*
Y624280D02*
D03*
Y573480D02*
D03*
Y522680D02*
D03*
Y471880D02*
D03*
X493321Y929079D02*
D03*
Y827480D02*
D03*
Y725880D02*
D03*
Y675080D02*
D03*
Y624280D02*
D03*
Y573480D02*
D03*
Y522680D02*
D03*
Y471880D02*
D03*
X544120Y929079D02*
D03*
Y776680D02*
D03*
Y725880D02*
D03*
Y675080D02*
D03*
Y624280D02*
D03*
Y573480D02*
D03*
Y522680D02*
D03*
Y471880D02*
D03*
X594920Y929079D02*
D03*
Y573480D02*
D03*
Y522680D02*
D03*
Y471880D02*
D03*
X645720Y929079D02*
D03*
Y776680D02*
D03*
Y675080D02*
D03*
Y624280D02*
D03*
Y573480D02*
D03*
Y471880D02*
D03*
X696520Y929079D02*
D03*
Y878279D02*
D03*
Y827480D02*
D03*
Y776680D02*
D03*
Y675080D02*
D03*
Y471880D02*
D03*
X747320Y929079D02*
D03*
Y776680D02*
D03*
Y725880D02*
D03*
Y471880D02*
D03*
X798120Y929079D02*
D03*
Y776680D02*
D03*
Y675080D02*
D03*
Y624280D02*
D03*
Y522680D02*
D03*
Y471880D02*
D03*
X848920Y929079D02*
D03*
Y573480D02*
D03*
Y471880D02*
D03*
X899720Y929079D02*
D03*
Y776680D02*
D03*
Y675080D02*
D03*
X950520Y929079D02*
D03*
Y878279D02*
D03*
Y827480D02*
D03*
Y776680D02*
D03*
Y725880D02*
D03*
Y675080D02*
D03*
Y624280D02*
D03*
Y471880D02*
D03*
M02*
