G04*
G04 #@! TF.GenerationSoftware,Altium Limited,Altium Designer,24.2.2 (26)*
G04*
G04 Layer_Color=8421504*
%FSLAX44Y44*%
%MOMM*%
G71*
G04*
G04 #@! TF.SameCoordinates,F77653A4-241C-4A06-9F2E-C48980E71D5F*
G04*
G04*
G04 #@! TF.FilePolarity,Positive*
G04*
G01*
G75*
%ADD19R,0.8000X0.9000*%
%ADD20R,0.9000X0.8000*%
%ADD21O,0.2700X1.5000*%
%ADD22O,1.5000X0.2700*%
%ADD23R,0.5320X0.8000*%
%ADD24O,2.4005X0.5740*%
%ADD25R,5.5000X1.4000*%
%ADD26R,1.6000X0.8000*%
%ADD27R,3.0000X2.1000*%
%ADD28R,0.8000X1.6000*%
%ADD29R,2.1000X3.0000*%
%ADD30R,1.3000X6.5000*%
%ADD31R,1.8000X3.0000*%
G36*
X910010Y845070D02*
Y837070D01*
X909510Y836570D01*
X907090D01*
Y840270D01*
X903790D01*
Y836570D01*
X901510D01*
X901010Y837070D01*
Y845070D01*
X901510Y845570D01*
X909510D01*
X910010Y845070D01*
D02*
G37*
G36*
X910010Y829170D02*
Y821170D01*
X909510Y820670D01*
X901510D01*
X901010Y821170D01*
Y829170D01*
X901510Y829670D01*
X903930D01*
Y825970D01*
X907230D01*
Y829670D01*
X909510D01*
X910010Y829170D01*
D02*
G37*
G36*
X676608Y760509D02*
X669110D01*
Y763008D01*
X676608D01*
Y760509D01*
D02*
G37*
G36*
X646608D02*
X639110D01*
Y763008D01*
X646608D01*
Y760509D01*
D02*
G37*
G36*
X676608Y755509D02*
X669110D01*
Y758008D01*
X676608D01*
Y755509D01*
D02*
G37*
G36*
X666109Y753909D02*
X649609D01*
Y755509D01*
X638858D01*
Y758009D01*
X649609D01*
Y764609D01*
X666109D01*
Y753909D01*
D02*
G37*
G36*
X676608Y750509D02*
X669110D01*
Y753008D01*
X676608D01*
Y750509D01*
D02*
G37*
G36*
X646608D02*
X639110D01*
Y753008D01*
X646608D01*
Y750509D01*
D02*
G37*
G36*
Y745509D02*
X639110D01*
Y748008D01*
X646608D01*
Y745509D01*
D02*
G37*
G36*
X676608Y740509D02*
X669110D01*
Y743008D01*
X676608D01*
Y740509D01*
D02*
G37*
G36*
X646608D02*
X639110D01*
Y743008D01*
X646608D01*
Y740509D01*
D02*
G37*
G36*
X676608Y735509D02*
X669110D01*
Y738008D01*
X676608D01*
Y735509D01*
D02*
G37*
G36*
X646608D02*
X639110D01*
Y738008D01*
X646608D01*
Y735509D01*
D02*
G37*
G36*
X676608Y730509D02*
X669110D01*
Y733008D01*
X676608D01*
Y730509D01*
D02*
G37*
G36*
X646608D02*
X639110D01*
Y733008D01*
X646608D01*
Y730509D01*
D02*
G37*
G36*
X676859Y745509D02*
X666109D01*
Y730509D01*
X649609D01*
Y748009D01*
X663859D01*
Y748009D01*
X676859D01*
Y745509D01*
D02*
G37*
G36*
X597671Y664033D02*
Y656673D01*
X597031Y656033D01*
X591998D01*
X589256Y658970D01*
Y661735D01*
X591998Y664673D01*
X597031D01*
X597671Y664033D01*
D02*
G37*
G36*
X584100Y661623D02*
Y658858D01*
X581358Y655920D01*
X576325D01*
X575685Y656560D01*
Y663920D01*
X576325Y664560D01*
X581358D01*
X584100Y661623D01*
D02*
G37*
G36*
X775060Y583120D02*
Y580700D01*
X771360D01*
Y577400D01*
X775060D01*
Y575120D01*
X774560Y574620D01*
X766560D01*
X766060Y575120D01*
Y583120D01*
X766560Y583620D01*
X774560D01*
X775060Y583120D01*
D02*
G37*
G36*
X790960Y583120D02*
Y575120D01*
X790460Y574620D01*
X782460D01*
X781960Y575120D01*
Y577540D01*
X785660D01*
Y580840D01*
X781960D01*
Y583120D01*
X782460Y583620D01*
X790460D01*
X790960Y583120D01*
D02*
G37*
G36*
X902925Y563475D02*
X903002Y563467D01*
X903079Y563454D01*
X903154Y563437D01*
X903228Y563416D01*
X903301Y563391D01*
X903372Y563362D01*
X903442Y563329D01*
X903510Y563293D01*
X903576Y563252D01*
X903639Y563208D01*
X903700Y563161D01*
X903758Y563110D01*
X903813Y563056D01*
X903866Y563000D01*
X903915Y562940D01*
X903961Y562878D01*
X904003Y562813D01*
X904041Y562746D01*
X904076Y562678D01*
X904107Y562607D01*
X904134Y562535D01*
X904157Y562461D01*
X904176Y562386D01*
X904191Y562310D01*
X904202Y562234D01*
X904208Y562157D01*
X904210Y562080D01*
Y555880D01*
X904208Y555803D01*
X904202Y555726D01*
X904191Y555650D01*
X904176Y555574D01*
X904157Y555499D01*
X904134Y555426D01*
X904107Y555354D01*
X904076Y555283D01*
X904041Y555214D01*
X904003Y555147D01*
X903961Y555083D01*
X903915Y555020D01*
X903866Y554961D01*
X903813Y554904D01*
X903758Y554850D01*
X903700Y554799D01*
X903639Y554752D01*
X903576Y554708D01*
X903510Y554668D01*
X903442Y554631D01*
X903372Y554598D01*
X903301Y554569D01*
X903228Y554544D01*
X903154Y554523D01*
X903079Y554506D01*
X903002Y554493D01*
X902925Y554485D01*
X902849Y554481D01*
X902771D01*
X902694Y554485D01*
X902618Y554493D01*
X902542Y554506D01*
X902466Y554523D01*
X902392Y554544D01*
X902319Y554569D01*
X902248Y554598D01*
X902178Y554631D01*
X902110Y554668D01*
X902044Y554708D01*
X901981Y554752D01*
X901920Y554799D01*
X901862Y554850D01*
X901806Y554904D01*
X901754Y554961D01*
X901705Y555020D01*
X901659Y555083D01*
X901617Y555147D01*
X901579Y555214D01*
X901544Y555283D01*
X901513Y555354D01*
X901486Y555426D01*
X901463Y555499D01*
X901444Y555574D01*
X901429Y555650D01*
X901418Y555726D01*
X901412Y555803D01*
X901410Y555880D01*
Y562080D01*
X901412Y562157D01*
X901418Y562234D01*
X901429Y562310D01*
X901444Y562386D01*
X901463Y562461D01*
X901486Y562535D01*
X901513Y562607D01*
X901544Y562678D01*
X901579Y562746D01*
X901617Y562813D01*
X901659Y562878D01*
X901705Y562940D01*
X901754Y563000D01*
X901806Y563056D01*
X901862Y563110D01*
X901920Y563161D01*
X901981Y563208D01*
X902044Y563252D01*
X902110Y563293D01*
X902178Y563329D01*
X902248Y563362D01*
X902319Y563391D01*
X902392Y563416D01*
X902466Y563437D01*
X902542Y563454D01*
X902618Y563467D01*
X902694Y563475D01*
X902771Y563480D01*
X902849D01*
X902925Y563475D01*
D02*
G37*
G36*
X897927D02*
X898003Y563467D01*
X898080Y563454D01*
X898155Y563437D01*
X898229Y563416D01*
X898302Y563391D01*
X898374Y563362D01*
X898444Y563329D01*
X898511Y563293D01*
X898577Y563252D01*
X898640Y563208D01*
X898701Y563161D01*
X898759Y563110D01*
X898815Y563056D01*
X898867Y563000D01*
X898916Y562940D01*
X898962Y562878D01*
X899004Y562813D01*
X899043Y562746D01*
X899077Y562678D01*
X899108Y562607D01*
X899135Y562535D01*
X899158Y562461D01*
X899177Y562386D01*
X899192Y562310D01*
X899203Y562234D01*
X899209Y562157D01*
X899211Y562080D01*
Y555880D01*
X899209Y555803D01*
X899203Y555726D01*
X899192Y555650D01*
X899177Y555574D01*
X899158Y555499D01*
X899135Y555426D01*
X899108Y555354D01*
X899077Y555283D01*
X899043Y555214D01*
X899004Y555147D01*
X898962Y555083D01*
X898916Y555020D01*
X898867Y554961D01*
X898815Y554904D01*
X898759Y554850D01*
X898701Y554799D01*
X898640Y554752D01*
X898577Y554708D01*
X898511Y554668D01*
X898444Y554631D01*
X898374Y554598D01*
X898302Y554569D01*
X898229Y554544D01*
X898155Y554523D01*
X898080Y554506D01*
X898003Y554493D01*
X897927Y554485D01*
X897850Y554481D01*
X897773D01*
X897696Y554485D01*
X897619Y554493D01*
X897543Y554506D01*
X897468Y554523D01*
X897393Y554544D01*
X897320Y554569D01*
X897249Y554598D01*
X897179Y554631D01*
X897111Y554668D01*
X897045Y554708D01*
X896982Y554752D01*
X896921Y554799D01*
X896863Y554850D01*
X896808Y554904D01*
X896755Y554961D01*
X896706Y555020D01*
X896661Y555083D01*
X896618Y555147D01*
X896580Y555214D01*
X896545Y555283D01*
X896514Y555354D01*
X896487Y555426D01*
X896464Y555499D01*
X896445Y555574D01*
X896430Y555650D01*
X896420Y555726D01*
X896413Y555803D01*
X896411Y555880D01*
Y562080D01*
X896413Y562157D01*
X896420Y562234D01*
X896430Y562310D01*
X896445Y562386D01*
X896464Y562461D01*
X896487Y562535D01*
X896514Y562607D01*
X896545Y562678D01*
X896580Y562746D01*
X896618Y562813D01*
X896661Y562878D01*
X896706Y562940D01*
X896755Y563000D01*
X896808Y563056D01*
X896863Y563110D01*
X896921Y563161D01*
X896982Y563208D01*
X897045Y563252D01*
X897111Y563293D01*
X897179Y563329D01*
X897249Y563362D01*
X897320Y563391D01*
X897393Y563416D01*
X897468Y563437D01*
X897543Y563454D01*
X897619Y563467D01*
X897696Y563475D01*
X897773Y563480D01*
X897850D01*
X897927Y563475D01*
D02*
G37*
G36*
X892926D02*
X893002Y563467D01*
X893079Y563454D01*
X893154Y563437D01*
X893228Y563416D01*
X893301Y563391D01*
X893372Y563362D01*
X893442Y563329D01*
X893510Y563293D01*
X893576Y563252D01*
X893639Y563208D01*
X893700Y563161D01*
X893758Y563110D01*
X893814Y563056D01*
X893866Y563000D01*
X893915Y562940D01*
X893961Y562878D01*
X894003Y562813D01*
X894041Y562746D01*
X894076Y562678D01*
X894107Y562607D01*
X894134Y562535D01*
X894157Y562461D01*
X894176Y562386D01*
X894191Y562310D01*
X894202Y562234D01*
X894208Y562157D01*
X894210Y562080D01*
Y555880D01*
X894208Y555803D01*
X894202Y555726D01*
X894191Y555650D01*
X894176Y555574D01*
X894157Y555499D01*
X894134Y555426D01*
X894107Y555354D01*
X894076Y555283D01*
X894041Y555214D01*
X894003Y555147D01*
X893961Y555083D01*
X893915Y555020D01*
X893866Y554961D01*
X893814Y554904D01*
X893758Y554850D01*
X893700Y554799D01*
X893639Y554752D01*
X893576Y554708D01*
X893510Y554668D01*
X893442Y554631D01*
X893372Y554598D01*
X893301Y554569D01*
X893228Y554544D01*
X893154Y554523D01*
X893079Y554506D01*
X893002Y554493D01*
X892926Y554485D01*
X892849Y554481D01*
X892771D01*
X892694Y554485D01*
X892618Y554493D01*
X892542Y554506D01*
X892466Y554523D01*
X892392Y554544D01*
X892319Y554569D01*
X892248Y554598D01*
X892178Y554631D01*
X892110Y554668D01*
X892044Y554708D01*
X891981Y554752D01*
X891920Y554799D01*
X891862Y554850D01*
X891806Y554904D01*
X891754Y554961D01*
X891705Y555020D01*
X891659Y555083D01*
X891617Y555147D01*
X891579Y555214D01*
X891544Y555283D01*
X891513Y555354D01*
X891486Y555426D01*
X891463Y555499D01*
X891444Y555574D01*
X891429Y555650D01*
X891418Y555726D01*
X891412Y555803D01*
X891410Y555880D01*
Y562080D01*
X891412Y562157D01*
X891418Y562234D01*
X891429Y562310D01*
X891444Y562386D01*
X891463Y562461D01*
X891486Y562535D01*
X891513Y562607D01*
X891544Y562678D01*
X891579Y562746D01*
X891617Y562813D01*
X891659Y562878D01*
X891705Y562940D01*
X891754Y563000D01*
X891806Y563056D01*
X891862Y563110D01*
X891920Y563161D01*
X891981Y563208D01*
X892044Y563252D01*
X892110Y563293D01*
X892178Y563329D01*
X892248Y563362D01*
X892319Y563391D01*
X892392Y563416D01*
X892466Y563437D01*
X892542Y563454D01*
X892618Y563467D01*
X892694Y563475D01*
X892771Y563480D01*
X892849D01*
X892926Y563475D01*
D02*
G37*
G36*
X887927D02*
X888004Y563467D01*
X888080Y563454D01*
X888155Y563437D01*
X888229Y563416D01*
X888302Y563391D01*
X888374Y563362D01*
X888444Y563329D01*
X888511Y563293D01*
X888577Y563252D01*
X888640Y563208D01*
X888701Y563161D01*
X888760Y563110D01*
X888815Y563056D01*
X888867Y563000D01*
X888916Y562940D01*
X888962Y562878D01*
X889004Y562813D01*
X889043Y562746D01*
X889078Y562678D01*
X889109Y562607D01*
X889135Y562535D01*
X889158Y562461D01*
X889177Y562386D01*
X889192Y562310D01*
X889203Y562234D01*
X889209Y562157D01*
X889211Y562080D01*
Y555880D01*
X889209Y555803D01*
X889203Y555726D01*
X889192Y555650D01*
X889177Y555574D01*
X889158Y555499D01*
X889135Y555426D01*
X889109Y555354D01*
X889078Y555283D01*
X889043Y555214D01*
X889004Y555147D01*
X888962Y555083D01*
X888916Y555020D01*
X888867Y554961D01*
X888815Y554904D01*
X888760Y554850D01*
X888701Y554799D01*
X888640Y554752D01*
X888577Y554708D01*
X888511Y554668D01*
X888444Y554631D01*
X888374Y554598D01*
X888302Y554569D01*
X888229Y554544D01*
X888155Y554523D01*
X888080Y554506D01*
X888004Y554493D01*
X887927Y554485D01*
X887850Y554481D01*
X887773D01*
X887696Y554485D01*
X887619Y554493D01*
X887543Y554506D01*
X887468Y554523D01*
X887393Y554544D01*
X887320Y554569D01*
X887249Y554598D01*
X887179Y554631D01*
X887111Y554668D01*
X887046Y554708D01*
X886982Y554752D01*
X886921Y554799D01*
X886863Y554850D01*
X886808Y554904D01*
X886755Y554961D01*
X886706Y555020D01*
X886661Y555083D01*
X886618Y555147D01*
X886580Y555214D01*
X886545Y555283D01*
X886514Y555354D01*
X886487Y555426D01*
X886464Y555499D01*
X886445Y555574D01*
X886430Y555650D01*
X886420Y555726D01*
X886413Y555803D01*
X886411Y555880D01*
Y562080D01*
X886413Y562157D01*
X886420Y562234D01*
X886430Y562310D01*
X886445Y562386D01*
X886464Y562461D01*
X886487Y562535D01*
X886514Y562607D01*
X886545Y562678D01*
X886580Y562746D01*
X886618Y562813D01*
X886661Y562878D01*
X886706Y562940D01*
X886755Y563000D01*
X886808Y563056D01*
X886863Y563110D01*
X886921Y563161D01*
X886982Y563208D01*
X887046Y563252D01*
X887111Y563293D01*
X887179Y563329D01*
X887249Y563362D01*
X887320Y563391D01*
X887393Y563416D01*
X887468Y563437D01*
X887543Y563454D01*
X887619Y563467D01*
X887696Y563475D01*
X887773Y563480D01*
X887850D01*
X887927Y563475D01*
D02*
G37*
G36*
X882926D02*
X883002Y563467D01*
X883079Y563454D01*
X883154Y563437D01*
X883228Y563416D01*
X883301Y563391D01*
X883372Y563362D01*
X883442Y563329D01*
X883510Y563293D01*
X883576Y563252D01*
X883639Y563208D01*
X883700Y563161D01*
X883758Y563110D01*
X883814Y563056D01*
X883866Y563000D01*
X883915Y562940D01*
X883961Y562878D01*
X884003Y562813D01*
X884041Y562746D01*
X884076Y562678D01*
X884107Y562607D01*
X884134Y562535D01*
X884157Y562461D01*
X884176Y562386D01*
X884191Y562310D01*
X884202Y562234D01*
X884208Y562157D01*
X884210Y562080D01*
Y555880D01*
X884208Y555803D01*
X884202Y555726D01*
X884191Y555650D01*
X884176Y555574D01*
X884157Y555499D01*
X884134Y555426D01*
X884107Y555354D01*
X884076Y555283D01*
X884041Y555214D01*
X884003Y555147D01*
X883961Y555083D01*
X883915Y555020D01*
X883866Y554961D01*
X883814Y554904D01*
X883758Y554850D01*
X883700Y554799D01*
X883639Y554752D01*
X883576Y554708D01*
X883510Y554668D01*
X883442Y554631D01*
X883372Y554598D01*
X883301Y554569D01*
X883228Y554544D01*
X883154Y554523D01*
X883079Y554506D01*
X883002Y554493D01*
X882926Y554485D01*
X882849Y554481D01*
X882771D01*
X882694Y554485D01*
X882618Y554493D01*
X882542Y554506D01*
X882466Y554523D01*
X882392Y554544D01*
X882319Y554569D01*
X882248Y554598D01*
X882178Y554631D01*
X882110Y554668D01*
X882044Y554708D01*
X881981Y554752D01*
X881920Y554799D01*
X881862Y554850D01*
X881806Y554904D01*
X881754Y554961D01*
X881705Y555020D01*
X881659Y555083D01*
X881617Y555147D01*
X881579Y555214D01*
X881544Y555283D01*
X881513Y555354D01*
X881486Y555426D01*
X881463Y555499D01*
X881444Y555574D01*
X881429Y555650D01*
X881418Y555726D01*
X881412Y555803D01*
X881410Y555880D01*
Y562080D01*
X881412Y562157D01*
X881418Y562234D01*
X881429Y562310D01*
X881444Y562386D01*
X881463Y562461D01*
X881486Y562535D01*
X881513Y562607D01*
X881544Y562678D01*
X881579Y562746D01*
X881617Y562813D01*
X881659Y562878D01*
X881705Y562940D01*
X881754Y563000D01*
X881806Y563056D01*
X881862Y563110D01*
X881920Y563161D01*
X881981Y563208D01*
X882044Y563252D01*
X882110Y563293D01*
X882178Y563329D01*
X882248Y563362D01*
X882319Y563391D01*
X882392Y563416D01*
X882466Y563437D01*
X882542Y563454D01*
X882618Y563467D01*
X882694Y563475D01*
X882771Y563480D01*
X882849D01*
X882926Y563475D01*
D02*
G37*
G36*
X916488Y549878D02*
X916564Y549872D01*
X916641Y549861D01*
X916717Y549846D01*
X916791Y549827D01*
X916865Y549804D01*
X916937Y549777D01*
X917008Y549746D01*
X917077Y549711D01*
X917143Y549673D01*
X917208Y549631D01*
X917271Y549585D01*
X917330Y549536D01*
X917386Y549483D01*
X917440Y549428D01*
X917491Y549370D01*
X917538Y549309D01*
X917582Y549246D01*
X917623Y549180D01*
X917660Y549112D01*
X917693Y549042D01*
X917722Y548971D01*
X917747Y548898D01*
X917767Y548824D01*
X917785Y548749D01*
X917797Y548672D01*
X917806Y548596D01*
X917810Y548519D01*
Y548441D01*
X917806Y548364D01*
X917797Y548288D01*
X917785Y548212D01*
X917767Y548136D01*
X917747Y548062D01*
X917722Y547989D01*
X917693Y547918D01*
X917660Y547848D01*
X917623Y547780D01*
X917582Y547714D01*
X917538Y547651D01*
X917491Y547590D01*
X917440Y547532D01*
X917386Y547476D01*
X917330Y547424D01*
X917271Y547375D01*
X917208Y547329D01*
X917143Y547287D01*
X917077Y547249D01*
X917008Y547214D01*
X916937Y547183D01*
X916865Y547156D01*
X916791Y547133D01*
X916717Y547114D01*
X916641Y547099D01*
X916564Y547088D01*
X916488Y547082D01*
X916410Y547080D01*
X910210D01*
X910133Y547082D01*
X910057Y547088D01*
X909980Y547099D01*
X909904Y547114D01*
X909829Y547133D01*
X909756Y547156D01*
X909684Y547183D01*
X909613Y547214D01*
X909544Y547249D01*
X909477Y547287D01*
X909413Y547329D01*
X909351Y547375D01*
X909291Y547424D01*
X909234Y547476D01*
X909181Y547532D01*
X909130Y547590D01*
X909082Y547651D01*
X909039Y547714D01*
X908998Y547780D01*
X908961Y547848D01*
X908928Y547918D01*
X908899Y547989D01*
X908874Y548062D01*
X908853Y548136D01*
X908836Y548212D01*
X908824Y548288D01*
X908815Y548364D01*
X908811Y548441D01*
Y548519D01*
X908815Y548596D01*
X908824Y548672D01*
X908836Y548749D01*
X908853Y548824D01*
X908874Y548898D01*
X908899Y548971D01*
X908928Y549042D01*
X908961Y549112D01*
X908998Y549180D01*
X909039Y549246D01*
X909082Y549309D01*
X909130Y549370D01*
X909181Y549428D01*
X909234Y549483D01*
X909291Y549536D01*
X909351Y549585D01*
X909413Y549631D01*
X909477Y549673D01*
X909544Y549711D01*
X909613Y549746D01*
X909684Y549777D01*
X909756Y549804D01*
X909829Y549827D01*
X909904Y549846D01*
X909980Y549861D01*
X910057Y549872D01*
X910133Y549878D01*
X910210Y549880D01*
X916410D01*
X916488Y549878D01*
D02*
G37*
G36*
X875487D02*
X875564Y549872D01*
X875640Y549861D01*
X875716Y549846D01*
X875791Y549827D01*
X875864Y549804D01*
X875937Y549777D01*
X876007Y549746D01*
X876076Y549711D01*
X876143Y549673D01*
X876208Y549631D01*
X876270Y549585D01*
X876329Y549536D01*
X876386Y549483D01*
X876440Y549428D01*
X876490Y549370D01*
X876538Y549309D01*
X876582Y549246D01*
X876622Y549180D01*
X876659Y549112D01*
X876692Y549042D01*
X876721Y548971D01*
X876746Y548898D01*
X876767Y548824D01*
X876784Y548749D01*
X876797Y548672D01*
X876805Y548596D01*
X876809Y548519D01*
Y548441D01*
X876805Y548364D01*
X876797Y548288D01*
X876784Y548212D01*
X876767Y548136D01*
X876746Y548062D01*
X876721Y547989D01*
X876692Y547918D01*
X876659Y547848D01*
X876622Y547780D01*
X876582Y547714D01*
X876538Y547651D01*
X876490Y547590D01*
X876440Y547532D01*
X876386Y547476D01*
X876329Y547424D01*
X876270Y547375D01*
X876208Y547329D01*
X876143Y547287D01*
X876076Y547249D01*
X876007Y547214D01*
X875937Y547183D01*
X875864Y547156D01*
X875791Y547133D01*
X875716Y547114D01*
X875640Y547099D01*
X875564Y547088D01*
X875487Y547082D01*
X875410Y547080D01*
X869210D01*
X869133Y547082D01*
X869056Y547088D01*
X868979Y547099D01*
X868904Y547114D01*
X868829Y547133D01*
X868755Y547156D01*
X868683Y547183D01*
X868612Y547214D01*
X868544Y547249D01*
X868477Y547287D01*
X868412Y547329D01*
X868350Y547375D01*
X868290Y547424D01*
X868234Y547476D01*
X868180Y547532D01*
X868129Y547590D01*
X868082Y547651D01*
X868038Y547714D01*
X867997Y547780D01*
X867961Y547848D01*
X867928Y547918D01*
X867899Y547989D01*
X867874Y548062D01*
X867853Y548136D01*
X867836Y548212D01*
X867823Y548288D01*
X867815Y548364D01*
X867810Y548441D01*
Y548519D01*
X867815Y548596D01*
X867823Y548672D01*
X867836Y548749D01*
X867853Y548824D01*
X867874Y548898D01*
X867899Y548971D01*
X867928Y549042D01*
X867961Y549112D01*
X867997Y549180D01*
X868038Y549246D01*
X868082Y549309D01*
X868129Y549370D01*
X868180Y549428D01*
X868234Y549483D01*
X868290Y549536D01*
X868350Y549585D01*
X868412Y549631D01*
X868477Y549673D01*
X868544Y549711D01*
X868612Y549746D01*
X868683Y549777D01*
X868755Y549804D01*
X868829Y549827D01*
X868904Y549846D01*
X868979Y549861D01*
X869056Y549872D01*
X869133Y549878D01*
X869210Y549880D01*
X875410D01*
X875487Y549878D01*
D02*
G37*
G36*
X916488Y544879D02*
X916564Y544873D01*
X916641Y544862D01*
X916717Y544847D01*
X916791Y544828D01*
X916865Y544805D01*
X916937Y544778D01*
X917008Y544747D01*
X917077Y544713D01*
X917143Y544674D01*
X917208Y544632D01*
X917271Y544586D01*
X917330Y544537D01*
X917386Y544485D01*
X917440Y544429D01*
X917491Y544371D01*
X917538Y544310D01*
X917582Y544247D01*
X917623Y544181D01*
X917660Y544114D01*
X917693Y544044D01*
X917722Y543972D01*
X917747Y543899D01*
X917767Y543825D01*
X917785Y543750D01*
X917797Y543674D01*
X917806Y543597D01*
X917810Y543520D01*
Y543443D01*
X917806Y543366D01*
X917797Y543289D01*
X917785Y543213D01*
X917767Y543138D01*
X917747Y543063D01*
X917722Y542990D01*
X917693Y542919D01*
X917660Y542849D01*
X917623Y542781D01*
X917582Y542715D01*
X917538Y542652D01*
X917491Y542591D01*
X917440Y542533D01*
X917386Y542478D01*
X917330Y542425D01*
X917271Y542376D01*
X917208Y542331D01*
X917143Y542289D01*
X917077Y542250D01*
X917008Y542215D01*
X916937Y542184D01*
X916865Y542157D01*
X916791Y542134D01*
X916717Y542115D01*
X916641Y542100D01*
X916564Y542090D01*
X916488Y542083D01*
X916410Y542081D01*
X910210D01*
X910133Y542083D01*
X910057Y542090D01*
X909980Y542100D01*
X909904Y542115D01*
X909829Y542134D01*
X909756Y542157D01*
X909684Y542184D01*
X909613Y542215D01*
X909544Y542250D01*
X909477Y542289D01*
X909413Y542331D01*
X909351Y542376D01*
X909291Y542425D01*
X909234Y542478D01*
X909181Y542533D01*
X909130Y542591D01*
X909082Y542652D01*
X909039Y542715D01*
X908998Y542781D01*
X908961Y542849D01*
X908928Y542919D01*
X908899Y542990D01*
X908874Y543063D01*
X908853Y543138D01*
X908836Y543213D01*
X908824Y543289D01*
X908815Y543366D01*
X908811Y543443D01*
Y543520D01*
X908815Y543597D01*
X908824Y543674D01*
X908836Y543750D01*
X908853Y543825D01*
X908874Y543899D01*
X908899Y543972D01*
X908928Y544044D01*
X908961Y544114D01*
X908998Y544181D01*
X909039Y544247D01*
X909082Y544310D01*
X909130Y544371D01*
X909181Y544429D01*
X909234Y544485D01*
X909291Y544537D01*
X909351Y544586D01*
X909413Y544632D01*
X909477Y544674D01*
X909544Y544713D01*
X909613Y544747D01*
X909684Y544778D01*
X909756Y544805D01*
X909829Y544828D01*
X909904Y544847D01*
X909980Y544862D01*
X910057Y544873D01*
X910133Y544879D01*
X910210Y544881D01*
X916410D01*
X916488Y544879D01*
D02*
G37*
G36*
X875487D02*
X875564Y544873D01*
X875640Y544862D01*
X875716Y544847D01*
X875791Y544828D01*
X875864Y544805D01*
X875937Y544778D01*
X876007Y544747D01*
X876076Y544713D01*
X876143Y544674D01*
X876208Y544632D01*
X876270Y544586D01*
X876329Y544537D01*
X876386Y544485D01*
X876440Y544429D01*
X876490Y544371D01*
X876538Y544310D01*
X876582Y544247D01*
X876622Y544181D01*
X876659Y544114D01*
X876692Y544044D01*
X876721Y543972D01*
X876746Y543899D01*
X876767Y543825D01*
X876784Y543750D01*
X876797Y543674D01*
X876805Y543597D01*
X876809Y543520D01*
Y543443D01*
X876805Y543366D01*
X876797Y543289D01*
X876784Y543213D01*
X876767Y543138D01*
X876746Y543063D01*
X876721Y542990D01*
X876692Y542919D01*
X876659Y542849D01*
X876622Y542781D01*
X876582Y542715D01*
X876538Y542652D01*
X876490Y542591D01*
X876440Y542533D01*
X876386Y542478D01*
X876329Y542425D01*
X876270Y542376D01*
X876208Y542331D01*
X876143Y542289D01*
X876076Y542250D01*
X876007Y542215D01*
X875937Y542184D01*
X875864Y542157D01*
X875791Y542134D01*
X875716Y542115D01*
X875640Y542100D01*
X875564Y542090D01*
X875487Y542083D01*
X875410Y542081D01*
X869210D01*
X869133Y542083D01*
X869056Y542090D01*
X868979Y542100D01*
X868904Y542115D01*
X868829Y542134D01*
X868755Y542157D01*
X868683Y542184D01*
X868612Y542215D01*
X868544Y542250D01*
X868477Y542289D01*
X868412Y542331D01*
X868350Y542376D01*
X868290Y542425D01*
X868234Y542478D01*
X868180Y542533D01*
X868129Y542591D01*
X868082Y542652D01*
X868038Y542715D01*
X867997Y542781D01*
X867961Y542849D01*
X867928Y542919D01*
X867899Y542990D01*
X867874Y543063D01*
X867853Y543138D01*
X867836Y543213D01*
X867823Y543289D01*
X867815Y543366D01*
X867810Y543443D01*
Y543520D01*
X867815Y543597D01*
X867823Y543674D01*
X867836Y543750D01*
X867853Y543825D01*
X867874Y543899D01*
X867899Y543972D01*
X867928Y544044D01*
X867961Y544114D01*
X867997Y544181D01*
X868038Y544247D01*
X868082Y544310D01*
X868129Y544371D01*
X868180Y544429D01*
X868234Y544485D01*
X868290Y544537D01*
X868350Y544586D01*
X868412Y544632D01*
X868477Y544674D01*
X868544Y544713D01*
X868612Y544747D01*
X868683Y544778D01*
X868755Y544805D01*
X868829Y544828D01*
X868904Y544847D01*
X868979Y544862D01*
X869056Y544873D01*
X869133Y544879D01*
X869210Y544881D01*
X875410D01*
X875487Y544879D01*
D02*
G37*
G36*
X916488Y539878D02*
X916564Y539872D01*
X916641Y539861D01*
X916717Y539846D01*
X916791Y539827D01*
X916865Y539804D01*
X916937Y539777D01*
X917008Y539746D01*
X917077Y539711D01*
X917143Y539673D01*
X917208Y539631D01*
X917271Y539585D01*
X917330Y539536D01*
X917386Y539484D01*
X917440Y539428D01*
X917491Y539370D01*
X917538Y539309D01*
X917582Y539246D01*
X917623Y539180D01*
X917660Y539112D01*
X917693Y539042D01*
X917722Y538971D01*
X917747Y538898D01*
X917767Y538824D01*
X917785Y538749D01*
X917797Y538672D01*
X917806Y538596D01*
X917810Y538519D01*
Y538441D01*
X917806Y538364D01*
X917797Y538288D01*
X917785Y538212D01*
X917767Y538136D01*
X917747Y538062D01*
X917722Y537989D01*
X917693Y537918D01*
X917660Y537848D01*
X917623Y537780D01*
X917582Y537714D01*
X917538Y537651D01*
X917491Y537590D01*
X917440Y537532D01*
X917386Y537476D01*
X917330Y537424D01*
X917271Y537375D01*
X917208Y537329D01*
X917143Y537287D01*
X917077Y537249D01*
X917008Y537214D01*
X916937Y537183D01*
X916865Y537156D01*
X916791Y537133D01*
X916717Y537114D01*
X916641Y537099D01*
X916564Y537088D01*
X916488Y537082D01*
X916410Y537080D01*
X910210D01*
X910133Y537082D01*
X910057Y537088D01*
X909980Y537099D01*
X909904Y537114D01*
X909829Y537133D01*
X909756Y537156D01*
X909684Y537183D01*
X909613Y537214D01*
X909544Y537249D01*
X909477Y537287D01*
X909413Y537329D01*
X909351Y537375D01*
X909291Y537424D01*
X909234Y537476D01*
X909181Y537532D01*
X909130Y537590D01*
X909082Y537651D01*
X909039Y537714D01*
X908998Y537780D01*
X908961Y537848D01*
X908928Y537918D01*
X908899Y537989D01*
X908874Y538062D01*
X908853Y538136D01*
X908836Y538212D01*
X908824Y538288D01*
X908815Y538364D01*
X908811Y538441D01*
Y538519D01*
X908815Y538596D01*
X908824Y538672D01*
X908836Y538749D01*
X908853Y538824D01*
X908874Y538898D01*
X908899Y538971D01*
X908928Y539042D01*
X908961Y539112D01*
X908998Y539180D01*
X909039Y539246D01*
X909082Y539309D01*
X909130Y539370D01*
X909181Y539428D01*
X909234Y539484D01*
X909291Y539536D01*
X909351Y539585D01*
X909413Y539631D01*
X909477Y539673D01*
X909544Y539711D01*
X909613Y539746D01*
X909684Y539777D01*
X909756Y539804D01*
X909829Y539827D01*
X909904Y539846D01*
X909980Y539861D01*
X910057Y539872D01*
X910133Y539878D01*
X910210Y539880D01*
X916410D01*
X916488Y539878D01*
D02*
G37*
G36*
X875487D02*
X875564Y539872D01*
X875640Y539861D01*
X875716Y539846D01*
X875791Y539827D01*
X875864Y539804D01*
X875937Y539777D01*
X876007Y539746D01*
X876076Y539711D01*
X876143Y539673D01*
X876208Y539631D01*
X876270Y539585D01*
X876329Y539536D01*
X876386Y539484D01*
X876440Y539428D01*
X876490Y539370D01*
X876538Y539309D01*
X876582Y539246D01*
X876622Y539180D01*
X876659Y539112D01*
X876692Y539042D01*
X876721Y538971D01*
X876746Y538898D01*
X876767Y538824D01*
X876784Y538749D01*
X876797Y538672D01*
X876805Y538596D01*
X876809Y538519D01*
Y538441D01*
X876805Y538364D01*
X876797Y538288D01*
X876784Y538212D01*
X876767Y538136D01*
X876746Y538062D01*
X876721Y537989D01*
X876692Y537918D01*
X876659Y537848D01*
X876622Y537780D01*
X876582Y537714D01*
X876538Y537651D01*
X876490Y537590D01*
X876440Y537532D01*
X876386Y537476D01*
X876329Y537424D01*
X876270Y537375D01*
X876208Y537329D01*
X876143Y537287D01*
X876076Y537249D01*
X876007Y537214D01*
X875937Y537183D01*
X875864Y537156D01*
X875791Y537133D01*
X875716Y537114D01*
X875640Y537099D01*
X875564Y537088D01*
X875487Y537082D01*
X875410Y537080D01*
X869210D01*
X869133Y537082D01*
X869056Y537088D01*
X868979Y537099D01*
X868904Y537114D01*
X868829Y537133D01*
X868755Y537156D01*
X868683Y537183D01*
X868612Y537214D01*
X868544Y537249D01*
X868477Y537287D01*
X868412Y537329D01*
X868350Y537375D01*
X868290Y537424D01*
X868234Y537476D01*
X868180Y537532D01*
X868129Y537590D01*
X868082Y537651D01*
X868038Y537714D01*
X867997Y537780D01*
X867961Y537848D01*
X867928Y537918D01*
X867899Y537989D01*
X867874Y538062D01*
X867853Y538136D01*
X867836Y538212D01*
X867823Y538288D01*
X867815Y538364D01*
X867810Y538441D01*
Y538519D01*
X867815Y538596D01*
X867823Y538672D01*
X867836Y538749D01*
X867853Y538824D01*
X867874Y538898D01*
X867899Y538971D01*
X867928Y539042D01*
X867961Y539112D01*
X867997Y539180D01*
X868038Y539246D01*
X868082Y539309D01*
X868129Y539370D01*
X868180Y539428D01*
X868234Y539484D01*
X868290Y539536D01*
X868350Y539585D01*
X868412Y539631D01*
X868477Y539673D01*
X868544Y539711D01*
X868612Y539746D01*
X868683Y539777D01*
X868755Y539804D01*
X868829Y539827D01*
X868904Y539846D01*
X868979Y539861D01*
X869056Y539872D01*
X869133Y539878D01*
X869210Y539880D01*
X875410D01*
X875487Y539878D01*
D02*
G37*
G36*
X916488Y534879D02*
X916564Y534873D01*
X916641Y534862D01*
X916717Y534847D01*
X916791Y534828D01*
X916865Y534805D01*
X916937Y534779D01*
X917008Y534748D01*
X917077Y534713D01*
X917143Y534674D01*
X917208Y534632D01*
X917271Y534586D01*
X917330Y534537D01*
X917386Y534485D01*
X917440Y534430D01*
X917491Y534371D01*
X917538Y534310D01*
X917582Y534247D01*
X917623Y534181D01*
X917660Y534114D01*
X917693Y534044D01*
X917722Y533972D01*
X917747Y533899D01*
X917767Y533825D01*
X917785Y533750D01*
X917797Y533674D01*
X917806Y533597D01*
X917810Y533520D01*
Y533443D01*
X917806Y533366D01*
X917797Y533289D01*
X917785Y533213D01*
X917767Y533138D01*
X917747Y533063D01*
X917722Y532990D01*
X917693Y532919D01*
X917660Y532849D01*
X917623Y532781D01*
X917582Y532715D01*
X917538Y532652D01*
X917491Y532591D01*
X917440Y532533D01*
X917386Y532478D01*
X917330Y532425D01*
X917271Y532376D01*
X917208Y532331D01*
X917143Y532289D01*
X917077Y532250D01*
X917008Y532215D01*
X916937Y532184D01*
X916865Y532157D01*
X916791Y532134D01*
X916717Y532115D01*
X916641Y532100D01*
X916564Y532090D01*
X916488Y532083D01*
X916410Y532081D01*
X910210D01*
X910133Y532083D01*
X910057Y532090D01*
X909980Y532100D01*
X909904Y532115D01*
X909829Y532134D01*
X909756Y532157D01*
X909684Y532184D01*
X909613Y532215D01*
X909544Y532250D01*
X909477Y532289D01*
X909413Y532331D01*
X909351Y532376D01*
X909291Y532425D01*
X909234Y532478D01*
X909181Y532533D01*
X909130Y532591D01*
X909082Y532652D01*
X909039Y532715D01*
X908998Y532781D01*
X908961Y532849D01*
X908928Y532919D01*
X908899Y532990D01*
X908874Y533063D01*
X908853Y533138D01*
X908836Y533213D01*
X908824Y533289D01*
X908815Y533366D01*
X908811Y533443D01*
Y533520D01*
X908815Y533597D01*
X908824Y533674D01*
X908836Y533750D01*
X908853Y533825D01*
X908874Y533899D01*
X908899Y533972D01*
X908928Y534044D01*
X908961Y534114D01*
X908998Y534181D01*
X909039Y534247D01*
X909082Y534310D01*
X909130Y534371D01*
X909181Y534430D01*
X909234Y534485D01*
X909291Y534537D01*
X909351Y534586D01*
X909413Y534632D01*
X909477Y534674D01*
X909544Y534713D01*
X909613Y534748D01*
X909684Y534779D01*
X909756Y534805D01*
X909829Y534828D01*
X909904Y534847D01*
X909980Y534862D01*
X910057Y534873D01*
X910133Y534879D01*
X910210Y534881D01*
X916410D01*
X916488Y534879D01*
D02*
G37*
G36*
X875487D02*
X875564Y534873D01*
X875640Y534862D01*
X875716Y534847D01*
X875791Y534828D01*
X875864Y534805D01*
X875937Y534779D01*
X876007Y534748D01*
X876076Y534713D01*
X876143Y534674D01*
X876208Y534632D01*
X876270Y534586D01*
X876329Y534537D01*
X876386Y534485D01*
X876440Y534430D01*
X876490Y534371D01*
X876538Y534310D01*
X876582Y534247D01*
X876622Y534181D01*
X876659Y534114D01*
X876692Y534044D01*
X876721Y533972D01*
X876746Y533899D01*
X876767Y533825D01*
X876784Y533750D01*
X876797Y533674D01*
X876805Y533597D01*
X876809Y533520D01*
Y533443D01*
X876805Y533366D01*
X876797Y533289D01*
X876784Y533213D01*
X876767Y533138D01*
X876746Y533063D01*
X876721Y532990D01*
X876692Y532919D01*
X876659Y532849D01*
X876622Y532781D01*
X876582Y532715D01*
X876538Y532652D01*
X876490Y532591D01*
X876440Y532533D01*
X876386Y532478D01*
X876329Y532425D01*
X876270Y532376D01*
X876208Y532331D01*
X876143Y532289D01*
X876076Y532250D01*
X876007Y532215D01*
X875937Y532184D01*
X875864Y532157D01*
X875791Y532134D01*
X875716Y532115D01*
X875640Y532100D01*
X875564Y532090D01*
X875487Y532083D01*
X875410Y532081D01*
X869210D01*
X869133Y532083D01*
X869056Y532090D01*
X868979Y532100D01*
X868904Y532115D01*
X868829Y532134D01*
X868755Y532157D01*
X868683Y532184D01*
X868612Y532215D01*
X868544Y532250D01*
X868477Y532289D01*
X868412Y532331D01*
X868350Y532376D01*
X868290Y532425D01*
X868234Y532478D01*
X868180Y532533D01*
X868129Y532591D01*
X868082Y532652D01*
X868038Y532715D01*
X867997Y532781D01*
X867961Y532849D01*
X867928Y532919D01*
X867899Y532990D01*
X867874Y533063D01*
X867853Y533138D01*
X867836Y533213D01*
X867823Y533289D01*
X867815Y533366D01*
X867810Y533443D01*
Y533520D01*
X867815Y533597D01*
X867823Y533674D01*
X867836Y533750D01*
X867853Y533825D01*
X867874Y533899D01*
X867899Y533972D01*
X867928Y534044D01*
X867961Y534114D01*
X867997Y534181D01*
X868038Y534247D01*
X868082Y534310D01*
X868129Y534371D01*
X868180Y534430D01*
X868234Y534485D01*
X868290Y534537D01*
X868350Y534586D01*
X868412Y534632D01*
X868477Y534674D01*
X868544Y534713D01*
X868612Y534748D01*
X868683Y534779D01*
X868755Y534805D01*
X868829Y534828D01*
X868904Y534847D01*
X868979Y534862D01*
X869056Y534873D01*
X869133Y534879D01*
X869210Y534881D01*
X875410D01*
X875487Y534879D01*
D02*
G37*
G36*
X903809Y527481D02*
X881809D01*
Y549481D01*
X903809D01*
Y527481D01*
D02*
G37*
G36*
X916488Y529878D02*
X916564Y529872D01*
X916641Y529861D01*
X916717Y529846D01*
X916791Y529827D01*
X916865Y529804D01*
X916937Y529777D01*
X917008Y529746D01*
X917077Y529711D01*
X917143Y529673D01*
X917208Y529631D01*
X917271Y529585D01*
X917330Y529536D01*
X917386Y529484D01*
X917440Y529428D01*
X917491Y529370D01*
X917538Y529309D01*
X917582Y529246D01*
X917623Y529180D01*
X917660Y529112D01*
X917693Y529042D01*
X917722Y528971D01*
X917747Y528898D01*
X917767Y528824D01*
X917785Y528749D01*
X917797Y528672D01*
X917806Y528596D01*
X917810Y528519D01*
Y528441D01*
X917806Y528364D01*
X917797Y528288D01*
X917785Y528212D01*
X917767Y528136D01*
X917747Y528062D01*
X917722Y527989D01*
X917693Y527918D01*
X917660Y527848D01*
X917623Y527780D01*
X917582Y527714D01*
X917538Y527651D01*
X917491Y527590D01*
X917440Y527532D01*
X917386Y527477D01*
X917330Y527424D01*
X917271Y527375D01*
X917208Y527329D01*
X917143Y527287D01*
X917077Y527249D01*
X917008Y527214D01*
X916937Y527183D01*
X916865Y527156D01*
X916791Y527133D01*
X916717Y527114D01*
X916641Y527099D01*
X916564Y527088D01*
X916488Y527082D01*
X916410Y527080D01*
X910210D01*
X910133Y527082D01*
X910057Y527088D01*
X909980Y527099D01*
X909904Y527114D01*
X909829Y527133D01*
X909756Y527156D01*
X909684Y527183D01*
X909613Y527214D01*
X909544Y527249D01*
X909477Y527287D01*
X909413Y527329D01*
X909351Y527375D01*
X909291Y527424D01*
X909234Y527477D01*
X909181Y527532D01*
X909130Y527590D01*
X909082Y527651D01*
X909039Y527714D01*
X908998Y527780D01*
X908961Y527848D01*
X908928Y527918D01*
X908899Y527989D01*
X908874Y528062D01*
X908853Y528136D01*
X908836Y528212D01*
X908824Y528288D01*
X908815Y528364D01*
X908811Y528441D01*
Y528519D01*
X908815Y528596D01*
X908824Y528672D01*
X908836Y528749D01*
X908853Y528824D01*
X908874Y528898D01*
X908899Y528971D01*
X908928Y529042D01*
X908961Y529112D01*
X908998Y529180D01*
X909039Y529246D01*
X909082Y529309D01*
X909130Y529370D01*
X909181Y529428D01*
X909234Y529484D01*
X909291Y529536D01*
X909351Y529585D01*
X909413Y529631D01*
X909477Y529673D01*
X909544Y529711D01*
X909613Y529746D01*
X909684Y529777D01*
X909756Y529804D01*
X909829Y529827D01*
X909904Y529846D01*
X909980Y529861D01*
X910057Y529872D01*
X910133Y529878D01*
X910210Y529880D01*
X916410D01*
X916488Y529878D01*
D02*
G37*
G36*
X875487D02*
X875564Y529872D01*
X875640Y529861D01*
X875716Y529846D01*
X875791Y529827D01*
X875864Y529804D01*
X875937Y529777D01*
X876007Y529746D01*
X876076Y529711D01*
X876143Y529673D01*
X876208Y529631D01*
X876270Y529585D01*
X876329Y529536D01*
X876386Y529484D01*
X876440Y529428D01*
X876490Y529370D01*
X876538Y529309D01*
X876582Y529246D01*
X876622Y529180D01*
X876659Y529112D01*
X876692Y529042D01*
X876721Y528971D01*
X876746Y528898D01*
X876767Y528824D01*
X876784Y528749D01*
X876797Y528672D01*
X876805Y528596D01*
X876809Y528519D01*
Y528441D01*
X876805Y528364D01*
X876797Y528288D01*
X876784Y528212D01*
X876767Y528136D01*
X876746Y528062D01*
X876721Y527989D01*
X876692Y527918D01*
X876659Y527848D01*
X876622Y527780D01*
X876582Y527714D01*
X876538Y527651D01*
X876490Y527590D01*
X876440Y527532D01*
X876386Y527477D01*
X876329Y527424D01*
X876270Y527375D01*
X876208Y527329D01*
X876143Y527287D01*
X876076Y527249D01*
X876007Y527214D01*
X875937Y527183D01*
X875864Y527156D01*
X875791Y527133D01*
X875716Y527114D01*
X875640Y527099D01*
X875564Y527088D01*
X875487Y527082D01*
X875410Y527080D01*
X869210D01*
X869133Y527082D01*
X869056Y527088D01*
X868979Y527099D01*
X868904Y527114D01*
X868829Y527133D01*
X868755Y527156D01*
X868683Y527183D01*
X868612Y527214D01*
X868544Y527249D01*
X868477Y527287D01*
X868412Y527329D01*
X868350Y527375D01*
X868290Y527424D01*
X868234Y527477D01*
X868180Y527532D01*
X868129Y527590D01*
X868082Y527651D01*
X868038Y527714D01*
X867997Y527780D01*
X867961Y527848D01*
X867928Y527918D01*
X867899Y527989D01*
X867874Y528062D01*
X867853Y528136D01*
X867836Y528212D01*
X867823Y528288D01*
X867815Y528364D01*
X867810Y528441D01*
Y528519D01*
X867815Y528596D01*
X867823Y528672D01*
X867836Y528749D01*
X867853Y528824D01*
X867874Y528898D01*
X867899Y528971D01*
X867928Y529042D01*
X867961Y529112D01*
X867997Y529180D01*
X868038Y529246D01*
X868082Y529309D01*
X868129Y529370D01*
X868180Y529428D01*
X868234Y529484D01*
X868290Y529536D01*
X868350Y529585D01*
X868412Y529631D01*
X868477Y529673D01*
X868544Y529711D01*
X868612Y529746D01*
X868683Y529777D01*
X868755Y529804D01*
X868829Y529827D01*
X868904Y529846D01*
X868979Y529861D01*
X869056Y529872D01*
X869133Y529878D01*
X869210Y529880D01*
X875410D01*
X875487Y529878D01*
D02*
G37*
G36*
X902925Y522475D02*
X903002Y522466D01*
X903079Y522454D01*
X903154Y522437D01*
X903228Y522416D01*
X903301Y522391D01*
X903372Y522362D01*
X903442Y522329D01*
X903510Y522292D01*
X903576Y522251D01*
X903639Y522207D01*
X903700Y522160D01*
X903758Y522109D01*
X903813Y522056D01*
X903866Y521999D01*
X903915Y521940D01*
X903961Y521877D01*
X904003Y521813D01*
X904041Y521746D01*
X904076Y521677D01*
X904107Y521606D01*
X904134Y521534D01*
X904157Y521460D01*
X904176Y521385D01*
X904191Y521310D01*
X904202Y521233D01*
X904208Y521157D01*
X904210Y521079D01*
Y514880D01*
X904208Y514802D01*
X904202Y514726D01*
X904191Y514649D01*
X904176Y514574D01*
X904157Y514499D01*
X904134Y514425D01*
X904107Y514353D01*
X904076Y514282D01*
X904041Y514213D01*
X904003Y514146D01*
X903961Y514082D01*
X903915Y514020D01*
X903866Y513960D01*
X903813Y513904D01*
X903758Y513850D01*
X903700Y513799D01*
X903639Y513752D01*
X903576Y513708D01*
X903510Y513667D01*
X903442Y513630D01*
X903372Y513597D01*
X903301Y513568D01*
X903228Y513543D01*
X903154Y513522D01*
X903079Y513505D01*
X903002Y513493D01*
X902925Y513484D01*
X902849Y513480D01*
X902771D01*
X902694Y513484D01*
X902618Y513493D01*
X902542Y513505D01*
X902466Y513522D01*
X902392Y513543D01*
X902319Y513568D01*
X902248Y513597D01*
X902178Y513630D01*
X902110Y513667D01*
X902044Y513708D01*
X901981Y513752D01*
X901920Y513799D01*
X901862Y513850D01*
X901806Y513904D01*
X901754Y513960D01*
X901705Y514020D01*
X901659Y514082D01*
X901617Y514146D01*
X901579Y514213D01*
X901544Y514282D01*
X901513Y514353D01*
X901486Y514425D01*
X901463Y514499D01*
X901444Y514574D01*
X901429Y514649D01*
X901418Y514726D01*
X901412Y514802D01*
X901410Y514880D01*
Y521079D01*
X901412Y521157D01*
X901418Y521233D01*
X901429Y521310D01*
X901444Y521385D01*
X901463Y521460D01*
X901486Y521534D01*
X901513Y521606D01*
X901544Y521677D01*
X901579Y521746D01*
X901617Y521813D01*
X901659Y521877D01*
X901705Y521940D01*
X901754Y521999D01*
X901806Y522056D01*
X901862Y522109D01*
X901920Y522160D01*
X901981Y522207D01*
X902044Y522251D01*
X902110Y522292D01*
X902178Y522329D01*
X902248Y522362D01*
X902319Y522391D01*
X902392Y522416D01*
X902466Y522437D01*
X902542Y522454D01*
X902618Y522466D01*
X902694Y522475D01*
X902771Y522479D01*
X902849D01*
X902925Y522475D01*
D02*
G37*
G36*
X897927D02*
X898003Y522466D01*
X898080Y522454D01*
X898155Y522437D01*
X898229Y522416D01*
X898302Y522391D01*
X898374Y522362D01*
X898444Y522329D01*
X898511Y522292D01*
X898577Y522251D01*
X898640Y522207D01*
X898701Y522160D01*
X898759Y522109D01*
X898815Y522056D01*
X898867Y521999D01*
X898916Y521940D01*
X898962Y521877D01*
X899004Y521813D01*
X899043Y521746D01*
X899077Y521677D01*
X899108Y521606D01*
X899135Y521534D01*
X899158Y521460D01*
X899177Y521385D01*
X899192Y521310D01*
X899203Y521233D01*
X899209Y521157D01*
X899211Y521079D01*
Y514880D01*
X899209Y514802D01*
X899203Y514726D01*
X899192Y514649D01*
X899177Y514574D01*
X899158Y514499D01*
X899135Y514425D01*
X899108Y514353D01*
X899077Y514282D01*
X899043Y514213D01*
X899004Y514146D01*
X898962Y514082D01*
X898916Y514020D01*
X898867Y513960D01*
X898815Y513904D01*
X898759Y513850D01*
X898701Y513799D01*
X898640Y513752D01*
X898577Y513708D01*
X898511Y513667D01*
X898444Y513630D01*
X898374Y513597D01*
X898302Y513568D01*
X898229Y513543D01*
X898155Y513522D01*
X898080Y513505D01*
X898003Y513493D01*
X897927Y513484D01*
X897850Y513480D01*
X897773D01*
X897696Y513484D01*
X897619Y513493D01*
X897543Y513505D01*
X897468Y513522D01*
X897393Y513543D01*
X897320Y513568D01*
X897249Y513597D01*
X897179Y513630D01*
X897111Y513667D01*
X897045Y513708D01*
X896982Y513752D01*
X896921Y513799D01*
X896863Y513850D01*
X896808Y513904D01*
X896755Y513960D01*
X896706Y514020D01*
X896661Y514082D01*
X896618Y514146D01*
X896580Y514213D01*
X896545Y514282D01*
X896514Y514353D01*
X896487Y514425D01*
X896464Y514499D01*
X896445Y514574D01*
X896430Y514649D01*
X896420Y514726D01*
X896413Y514802D01*
X896411Y514880D01*
Y521079D01*
X896413Y521157D01*
X896420Y521233D01*
X896430Y521310D01*
X896445Y521385D01*
X896464Y521460D01*
X896487Y521534D01*
X896514Y521606D01*
X896545Y521677D01*
X896580Y521746D01*
X896618Y521813D01*
X896661Y521877D01*
X896706Y521940D01*
X896755Y521999D01*
X896808Y522056D01*
X896863Y522109D01*
X896921Y522160D01*
X896982Y522207D01*
X897045Y522251D01*
X897111Y522292D01*
X897179Y522329D01*
X897249Y522362D01*
X897320Y522391D01*
X897393Y522416D01*
X897468Y522437D01*
X897543Y522454D01*
X897619Y522466D01*
X897696Y522475D01*
X897773Y522479D01*
X897850D01*
X897927Y522475D01*
D02*
G37*
G36*
X892926D02*
X893002Y522466D01*
X893079Y522454D01*
X893154Y522437D01*
X893228Y522416D01*
X893301Y522391D01*
X893372Y522362D01*
X893442Y522329D01*
X893510Y522292D01*
X893576Y522251D01*
X893639Y522207D01*
X893700Y522160D01*
X893758Y522109D01*
X893814Y522056D01*
X893866Y521999D01*
X893915Y521940D01*
X893961Y521877D01*
X894003Y521813D01*
X894041Y521746D01*
X894076Y521677D01*
X894107Y521606D01*
X894134Y521534D01*
X894157Y521460D01*
X894176Y521385D01*
X894191Y521310D01*
X894202Y521233D01*
X894208Y521157D01*
X894210Y521079D01*
Y514880D01*
X894208Y514802D01*
X894202Y514726D01*
X894191Y514649D01*
X894176Y514574D01*
X894157Y514499D01*
X894134Y514425D01*
X894107Y514353D01*
X894076Y514282D01*
X894041Y514213D01*
X894003Y514146D01*
X893961Y514082D01*
X893915Y514020D01*
X893866Y513960D01*
X893814Y513904D01*
X893758Y513850D01*
X893700Y513799D01*
X893639Y513752D01*
X893576Y513708D01*
X893510Y513667D01*
X893442Y513630D01*
X893372Y513597D01*
X893301Y513568D01*
X893228Y513543D01*
X893154Y513522D01*
X893079Y513505D01*
X893002Y513493D01*
X892926Y513484D01*
X892849Y513480D01*
X892771D01*
X892694Y513484D01*
X892618Y513493D01*
X892542Y513505D01*
X892466Y513522D01*
X892392Y513543D01*
X892319Y513568D01*
X892248Y513597D01*
X892178Y513630D01*
X892110Y513667D01*
X892044Y513708D01*
X891981Y513752D01*
X891920Y513799D01*
X891862Y513850D01*
X891806Y513904D01*
X891754Y513960D01*
X891705Y514020D01*
X891659Y514082D01*
X891617Y514146D01*
X891579Y514213D01*
X891544Y514282D01*
X891513Y514353D01*
X891486Y514425D01*
X891463Y514499D01*
X891444Y514574D01*
X891429Y514649D01*
X891418Y514726D01*
X891412Y514802D01*
X891410Y514880D01*
Y521079D01*
X891412Y521157D01*
X891418Y521233D01*
X891429Y521310D01*
X891444Y521385D01*
X891463Y521460D01*
X891486Y521534D01*
X891513Y521606D01*
X891544Y521677D01*
X891579Y521746D01*
X891617Y521813D01*
X891659Y521877D01*
X891705Y521940D01*
X891754Y521999D01*
X891806Y522056D01*
X891862Y522109D01*
X891920Y522160D01*
X891981Y522207D01*
X892044Y522251D01*
X892110Y522292D01*
X892178Y522329D01*
X892248Y522362D01*
X892319Y522391D01*
X892392Y522416D01*
X892466Y522437D01*
X892542Y522454D01*
X892618Y522466D01*
X892694Y522475D01*
X892771Y522479D01*
X892849D01*
X892926Y522475D01*
D02*
G37*
G36*
X887927D02*
X888004Y522466D01*
X888080Y522454D01*
X888155Y522437D01*
X888229Y522416D01*
X888302Y522391D01*
X888374Y522362D01*
X888444Y522329D01*
X888511Y522292D01*
X888577Y522251D01*
X888640Y522207D01*
X888701Y522160D01*
X888760Y522109D01*
X888815Y522056D01*
X888867Y521999D01*
X888916Y521940D01*
X888962Y521877D01*
X889004Y521813D01*
X889043Y521746D01*
X889078Y521677D01*
X889109Y521606D01*
X889135Y521534D01*
X889158Y521460D01*
X889177Y521385D01*
X889192Y521310D01*
X889203Y521233D01*
X889209Y521157D01*
X889211Y521079D01*
Y514880D01*
X889209Y514802D01*
X889203Y514726D01*
X889192Y514649D01*
X889177Y514574D01*
X889158Y514499D01*
X889135Y514425D01*
X889109Y514353D01*
X889078Y514282D01*
X889043Y514213D01*
X889004Y514146D01*
X888962Y514082D01*
X888916Y514020D01*
X888867Y513960D01*
X888815Y513904D01*
X888760Y513850D01*
X888701Y513799D01*
X888640Y513752D01*
X888577Y513708D01*
X888511Y513667D01*
X888444Y513630D01*
X888374Y513597D01*
X888302Y513568D01*
X888229Y513543D01*
X888155Y513522D01*
X888080Y513505D01*
X888004Y513493D01*
X887927Y513484D01*
X887850Y513480D01*
X887773D01*
X887696Y513484D01*
X887619Y513493D01*
X887543Y513505D01*
X887468Y513522D01*
X887393Y513543D01*
X887320Y513568D01*
X887249Y513597D01*
X887179Y513630D01*
X887111Y513667D01*
X887046Y513708D01*
X886982Y513752D01*
X886921Y513799D01*
X886863Y513850D01*
X886808Y513904D01*
X886755Y513960D01*
X886706Y514020D01*
X886661Y514082D01*
X886618Y514146D01*
X886580Y514213D01*
X886545Y514282D01*
X886514Y514353D01*
X886487Y514425D01*
X886464Y514499D01*
X886445Y514574D01*
X886430Y514649D01*
X886420Y514726D01*
X886413Y514802D01*
X886411Y514880D01*
Y521079D01*
X886413Y521157D01*
X886420Y521233D01*
X886430Y521310D01*
X886445Y521385D01*
X886464Y521460D01*
X886487Y521534D01*
X886514Y521606D01*
X886545Y521677D01*
X886580Y521746D01*
X886618Y521813D01*
X886661Y521877D01*
X886706Y521940D01*
X886755Y521999D01*
X886808Y522056D01*
X886863Y522109D01*
X886921Y522160D01*
X886982Y522207D01*
X887046Y522251D01*
X887111Y522292D01*
X887179Y522329D01*
X887249Y522362D01*
X887320Y522391D01*
X887393Y522416D01*
X887468Y522437D01*
X887543Y522454D01*
X887619Y522466D01*
X887696Y522475D01*
X887773Y522479D01*
X887850D01*
X887927Y522475D01*
D02*
G37*
G36*
X882926D02*
X883002Y522466D01*
X883079Y522454D01*
X883154Y522437D01*
X883228Y522416D01*
X883301Y522391D01*
X883372Y522362D01*
X883442Y522329D01*
X883510Y522292D01*
X883576Y522251D01*
X883639Y522207D01*
X883700Y522160D01*
X883758Y522109D01*
X883814Y522056D01*
X883866Y521999D01*
X883915Y521940D01*
X883961Y521877D01*
X884003Y521813D01*
X884041Y521746D01*
X884076Y521677D01*
X884107Y521606D01*
X884134Y521534D01*
X884157Y521460D01*
X884176Y521385D01*
X884191Y521310D01*
X884202Y521233D01*
X884208Y521157D01*
X884210Y521079D01*
Y514880D01*
X884208Y514802D01*
X884202Y514726D01*
X884191Y514649D01*
X884176Y514574D01*
X884157Y514499D01*
X884134Y514425D01*
X884107Y514353D01*
X884076Y514282D01*
X884041Y514213D01*
X884003Y514146D01*
X883961Y514082D01*
X883915Y514020D01*
X883866Y513960D01*
X883814Y513904D01*
X883758Y513850D01*
X883700Y513799D01*
X883639Y513752D01*
X883576Y513708D01*
X883510Y513667D01*
X883442Y513630D01*
X883372Y513597D01*
X883301Y513568D01*
X883228Y513543D01*
X883154Y513522D01*
X883079Y513505D01*
X883002Y513493D01*
X882926Y513484D01*
X882849Y513480D01*
X882771D01*
X882694Y513484D01*
X882618Y513493D01*
X882542Y513505D01*
X882466Y513522D01*
X882392Y513543D01*
X882319Y513568D01*
X882248Y513597D01*
X882178Y513630D01*
X882110Y513667D01*
X882044Y513708D01*
X881981Y513752D01*
X881920Y513799D01*
X881862Y513850D01*
X881806Y513904D01*
X881754Y513960D01*
X881705Y514020D01*
X881659Y514082D01*
X881617Y514146D01*
X881579Y514213D01*
X881544Y514282D01*
X881513Y514353D01*
X881486Y514425D01*
X881463Y514499D01*
X881444Y514574D01*
X881429Y514649D01*
X881418Y514726D01*
X881412Y514802D01*
X881410Y514880D01*
Y521079D01*
X881412Y521157D01*
X881418Y521233D01*
X881429Y521310D01*
X881444Y521385D01*
X881463Y521460D01*
X881486Y521534D01*
X881513Y521606D01*
X881544Y521677D01*
X881579Y521746D01*
X881617Y521813D01*
X881659Y521877D01*
X881705Y521940D01*
X881754Y521999D01*
X881806Y522056D01*
X881862Y522109D01*
X881920Y522160D01*
X881981Y522207D01*
X882044Y522251D01*
X882110Y522292D01*
X882178Y522329D01*
X882248Y522362D01*
X882319Y522391D01*
X882392Y522416D01*
X882466Y522437D01*
X882542Y522454D01*
X882618Y522466D01*
X882694Y522475D01*
X882771Y522479D01*
X882849D01*
X882926Y522475D01*
D02*
G37*
D19*
X749949Y675640D02*
D03*
X735951D02*
D03*
X840091Y674370D02*
D03*
X854089D02*
D03*
X810909Y727710D02*
D03*
X796911D02*
D03*
X604034Y868150D02*
D03*
X590036D02*
D03*
Y892280D02*
D03*
X604034D02*
D03*
X791994Y854180D02*
D03*
X777996D02*
D03*
X593739Y635000D02*
D03*
X579741D02*
D03*
Y687070D02*
D03*
X593739D02*
D03*
X572121Y534670D02*
D03*
X586119D02*
D03*
Y585470D02*
D03*
X572121D02*
D03*
X601331Y769620D02*
D03*
X615329D02*
D03*
X616599Y723900D02*
D03*
X602601D02*
D03*
Y746760D02*
D03*
X616599D02*
D03*
X715659Y731520D02*
D03*
X701661D02*
D03*
X722009Y758190D02*
D03*
X708011D02*
D03*
X722009Y786130D02*
D03*
X708011D02*
D03*
D20*
X666750Y581011D02*
D03*
Y595009D02*
D03*
X868680Y495949D02*
D03*
Y481951D02*
D03*
X887730Y495949D02*
D03*
Y481951D02*
D03*
X676910Y685179D02*
D03*
Y671181D02*
D03*
X908050Y494679D02*
D03*
Y480681D02*
D03*
X882650Y598791D02*
D03*
Y612789D02*
D03*
X791345Y891659D02*
D03*
Y877661D02*
D03*
X902970Y598791D02*
D03*
Y612789D02*
D03*
D21*
X855149Y713151D02*
D03*
X860151D02*
D03*
X865149D02*
D03*
X870151D02*
D03*
X875149D02*
D03*
X880151D02*
D03*
X885149D02*
D03*
X890151D02*
D03*
X895149D02*
D03*
X900151D02*
D03*
X905149D02*
D03*
X910151D02*
D03*
Y798148D02*
D03*
X905149D02*
D03*
X900151D02*
D03*
X895149D02*
D03*
X890151D02*
D03*
X885149D02*
D03*
X880151D02*
D03*
X875149D02*
D03*
X870151D02*
D03*
X865149D02*
D03*
X860151D02*
D03*
X855149D02*
D03*
D22*
X925150Y728149D02*
D03*
X925148Y733150D02*
D03*
X925150Y738149D02*
D03*
X925148Y743150D02*
D03*
X925150Y748149D02*
D03*
X925148Y753150D02*
D03*
X925150Y758149D02*
D03*
X925149Y763150D02*
D03*
X925150Y768149D02*
D03*
X925149Y773150D02*
D03*
X925150Y778149D02*
D03*
X925149Y783150D02*
D03*
X840150Y783151D02*
D03*
X840152Y778150D02*
D03*
X840150Y773151D02*
D03*
X840152Y768150D02*
D03*
X840150Y763151D02*
D03*
X840152Y758150D02*
D03*
X840150Y753151D02*
D03*
X840151Y748150D02*
D03*
X840150Y743151D02*
D03*
X840151Y738150D02*
D03*
X840150Y733151D02*
D03*
X840151Y728150D02*
D03*
D23*
X686410Y652079D02*
D03*
X676910D02*
D03*
X667410D02*
D03*
Y628079D02*
D03*
X676910D02*
D03*
X686410D02*
D03*
D24*
X639567Y905510D02*
D03*
Y892810D02*
D03*
Y880110D02*
D03*
Y867410D02*
D03*
Y854710D02*
D03*
Y842010D02*
D03*
Y829310D02*
D03*
Y816610D02*
D03*
X734573Y905510D02*
D03*
Y892810D02*
D03*
Y880110D02*
D03*
Y867410D02*
D03*
Y854710D02*
D03*
Y842010D02*
D03*
Y829310D02*
D03*
Y816610D02*
D03*
D25*
X750019Y637540D02*
D03*
X840019D02*
D03*
D26*
X536604Y855151D02*
D03*
Y842651D02*
D03*
Y830151D02*
D03*
Y817651D02*
D03*
D27*
X507604Y792151D02*
D03*
Y880650D02*
D03*
D28*
X889970Y878310D02*
D03*
X877470D02*
D03*
X864970D02*
D03*
X852470D02*
D03*
D29*
X826970Y907310D02*
D03*
X915470D02*
D03*
D30*
X741680Y545300D02*
D03*
X716280D02*
D03*
X690880D02*
D03*
D31*
X770680Y508800D02*
D03*
X661880D02*
D03*
M02*
